<?xml version="1.0" encoding="UTF-8" standalone="no"?>
<!-- Created with Inkscape (http://www.inkscape.org/) -->

<svg
   xmlns:dc="http://purl.org/dc/elements/1.1/"
   xmlns:cc="http://creativecommons.org/ns#"
   xmlns:rdf="http://www.w3.org/1999/02/22-rdf-syntax-ns#"
   xmlns:svg="http://www.w3.org/2000/svg"
   xmlns="http://www.w3.org/2000/svg"
   xmlns:sodipodi="http://sodipodi.sourceforge.net/DTD/sodipodi-0.dtd"
   xmlns:inkscape="http://www.inkscape.org/namespaces/inkscape"
   width="210mm"
   height="297mm"
   viewBox="0 0 210 297"
   version="1.1"
   id="svg8"
   inkscape:version="0.92.2 (5c3e80d, 2017-08-06)"
   sodipodi:docname="logo-madrid.svg">
  <defs
     id="defs2" />
  <sodipodi:namedview
     id="base"
     pagecolor="#ffffff"
     bordercolor="#666666"
     borderopacity="1.0"
     inkscape:pageopacity="0.0"
     inkscape:pageshadow="2"
     inkscape:zoom="0.11313708"
     inkscape:cx="2584.2739"
     inkscape:cy="-427.15428"
     inkscape:document-units="mm"
     inkscape:current-layer="layer1"
     showgrid="false" />
  <metadata
     id="metadata5">
    <rdf:RDF>
      <cc:Work
         rdf:about="">
        <dc:format>image/svg+xml</dc:format>
        <dc:type
           rdf:resource="http://purl.org/dc/dcmitype/StillImage" />
        <dc:title></dc:title>
      </cc:Work>
    </rdf:RDF>
  </metadata>
  <g
     inkscape:label="Capa 1"
     inkscape:groupmode="layer"
     id="layer1">
    <path
       style="fill:#000000;stroke-width:0.20023338"
       d="m 28.015451,217.77862 c -2.459084,-1.27349 -3.413601,-4.72772 -2.402101,-8.69273 0.480966,-1.88534 2.323184,-7.81751 4.906744,-15.80042 1.033626,-3.19372 2.255451,-7.11329 2.715184,-8.71015 1.039086,-3.6092 1.632787,-4.91856 2.458577,-5.4221 0.874513,-0.53324 1.836396,-0.4964 2.425677,0.0929 1.382122,1.3821 1.243806,3.14325 -1.723371,21.946 -0.338664,2.14609 -0.697209,5.13018 -0.796779,6.63127 -0.215446,3.24835 -1.107833,7.11253 -1.968311,8.52318 -0.979446,1.60563 -3.861329,2.34053 -5.61562,1.43205 z m 142.835239,-13.5651 c -1.01097,-0.25088 -2.0066,-0.97047 -2.35309,-1.70067 -0.54162,-1.14136 -0.40608,-2.25527 0.60288,-4.9547 0.42051,-1.12505 0.61095,-1.38718 1.21651,-1.67455 0.88249,-0.41876 1.9752,-0.3064 2.96411,0.30478 0.99087,0.61238 1.28594,1.31046 1.43367,3.39167 0.10322,1.4541 0.0607,1.97865 -0.21981,2.71323 -0.57972,1.51795 -2.07996,2.30845 -3.64427,1.92024 z M 44.632926,198.34837 c 0,-0.25164 0.766439,-5.05035 1.701993,-10.66379 0.93553,-5.61344 1.700979,-10.27942 1.700979,-10.36885 0,-0.0894 0.965218,-0.13702 2.144939,-0.10576 l 2.144914,0.0568 2.530126,6.76082 c 1.391592,3.71845 2.586773,6.81745 2.655979,6.88665 0.06921,0.0692 0.191749,-0.0447 0.272308,-0.25323 0.08058,-0.20849 1.238565,-3.30748 2.573294,-6.88665 l 2.426812,-6.50759 2.136894,-0.0568 c 1.175301,-0.0313 2.136919,0.0206 2.136919,0.11516 0,0.0946 0.175782,1.15637 0.390648,2.35951 0.724698,4.05815 3.013315,18.24341 3.013315,18.67714 0,0.41126 -0.08759,0.43011 -1.99853,0.43011 -1.907535,0 -2.003362,-0.0205 -2.104864,-0.45053 -0.09689,-0.41048 -2.095757,-13.97604 -2.109937,-14.31933 -0.0034,-0.0811 -0.08913,-0.006 -0.190661,0.16799 -0.18844,0.32216 -4.752823,12.48853 -5.196372,13.85099 -0.24093,0.74 -0.25953,0.75088 -1.285088,0.75088 h -1.040608 l -1.970944,-5.35624 c -2.830239,-7.69146 -3.606123,-9.62198 -3.681658,-9.16068 -0.03609,0.22026 -0.538989,3.55414 -1.117617,7.40864 l -1.052009,7.00816 -2.040899,0.0571 c -2.009183,0.0562 -2.040899,0.0499 -2.039933,-0.40046 z m 27.684721,-2e-4 c 0.05653,-0.25152 1.60595,-4.55709 3.443143,-9.56793 1.837217,-5.01085 3.537278,-9.65125 3.777918,-10.31202 l 0.43751,-1.2014 h 2.489835 2.489859 l 1.86978,5.10595 c 4.625352,12.63075 5.86225,16.05689 5.86225,16.23809 0,0.11714 -0.884948,0.17169 -2.231223,0.13753 l -2.231223,-0.0566 -0.72221,-2.10245 -0.72221,-2.10245 -4.310603,-0.0538 -4.310602,-0.0538 -0.708296,2.15629 -0.708297,2.15629 -2.264195,0.0568 -2.264219,0.0568 0.102783,-0.45731 z m 13.16189,-7.64951 c 0,-0.24817 -2.317338,-7.17496 -2.852413,-8.52614 -0.172762,-0.43631 -0.388015,0.0646 -1.676413,3.9011 -0.812987,2.42093 -1.478165,4.51587 -1.478165,4.65543 0,0.19355 0.712427,0.25374 3.003507,0.25374 2.460075,0 3.003484,-0.0514 3.003484,-0.28413 z m 9.410979,-2.71957 v -10.84066 l 5.556484,0.0744 c 5.07934,0.068 5.65504,0.11115 6.70442,0.50276 4.06175,1.51578 6.22476,4.98364 6.21451,9.96339 -0.0106,5.19463 -2.20293,8.91493 -6.26118,10.62543 -0.7977,0.33622 -1.54986,0.38756 -6.55765,0.44758 l -5.656584,0.0678 z m 10.188144,7.09698 c 1.45287,-0.43145 2.82647,-1.79306 3.42237,-3.39246 0.93258,-2.50306 0.7412,-5.93219 -0.45715,-8.19039 -1.18018,-2.22397 -2.77743,-2.92257 -6.68212,-2.92257 h -2.466575 v 7.40864 7.40863 h 2.566695 c 1.74055,0 2.90469,-0.10037 3.61678,-0.31185 z m 12.03778,-7.09678 v -10.8126 h 4.29514 c 2.41427,0 4.75983,0.0985 5.35626,0.2249 3.05612,0.64777 4.84055,2.47927 5.09762,5.23211 0.23315,2.49685 -0.84671,4.53825 -3.06204,5.7885 l -1.07324,0.60569 3.10738,4.58188 c 1.70907,2.52003 3.16006,4.71918 3.22446,4.887 0.10109,0.26342 -0.22105,0.30413 -2.3572,0.2979 l -2.47428,-0.007 -1.19035,-1.94505 c -0.65469,-1.0698 -1.84613,-2.95875 -2.64762,-4.1977 l -1.45727,-2.25262 h -1.4071 -1.40712 v 4.2049 4.2049 h -2.00232 -2.00232 z m 9.07707,-1.46204 c 1.00116,-0.76439 1.41248,-1.61886 1.40016,-2.90861 -0.0109,-1.14823 -0.34736,-1.78075 -1.34286,-2.52503 -0.46657,-0.34883 -0.9071,-0.42328 -2.84097,-0.48013 l -2.28876,-0.0673 v 3.3388 3.33879 l 2.16885,-0.0678 c 2.01537,-0.063 2.22081,-0.10747 2.90358,-0.62876 z m 10.74602,1.46204 v -10.8126 h 2.10245 2.10245 v 10.8126 10.8126 h -2.10245 -2.10245 z m 9.0105,0 v -10.8126 l 5.0559,0.003 c 6.85477,0.004 8.32272,0.38162 10.70291,2.75321 3.96925,3.95488 3.80074,12.15173 -0.33487,16.29106 -2.28418,2.28621 -3.44532,2.57797 -10.25994,2.57797 h -5.164 z m 10.91272,6.86582 c 1.09764,-0.58166 2.1925,-1.76349 2.74332,-2.96127 0.4108,-0.89327 0.46041,-1.30328 0.46041,-3.80444 0,-2.67347 -0.027,-2.86175 -0.58321,-4.06638 -1.22304,-2.64881 -2.93889,-3.4895 -6.93692,-3.39878 l -2.49153,0.0565 -0.0527,7.10723 c -0.029,3.90898 -0.006,7.23014 0.0521,7.38035 0.0839,0.21877 0.69214,0.257 3.05617,0.19215 2.52293,-0.0692 3.06764,-0.14258 3.75231,-0.50539 z m 15.33907,-1.97298 c -1.09389,-0.92044 -1.29011,-2.73881 -0.63906,-5.92203 0.41407,-2.02457 0.72646,-4.9334 0.92166,-8.58201 0.16117,-3.01283 0.38765,-4.80502 1.11332,-8.81027 0.32922,-1.81712 0.67921,-4.56722 0.77777,-6.11133 0.21525,-3.37235 0.6129,-4.61806 1.94816,-6.10319 1.24898,-1.38918 2.20997,-1.84941 4.06648,-1.94754 1.96375,-0.10378 2.52383,0.22976 3.41061,2.03106 1.30939,2.65972 1.03653,4.89866 -1.19291,9.78859 -3.05216,6.6945 -4.4624,11.40979 -5.82068,19.46236 -0.68223,4.0446 -1.22632,5.46945 -2.38722,6.25178 -0.87676,0.59085 -1.44536,0.576 -2.19813,-0.0574 z M 36.485006,175.33384 c -0.570753,-0.12804 -1.041985,-0.41994 -1.476113,-0.91438 -0.610248,-0.69503 -0.633558,-0.78407 -0.541645,-2.06871 0.190348,-2.66024 1.180252,-3.59146 3.892634,-3.66188 1.46145,-0.0379 2.207695,0.39266 2.637475,1.5219 0.231944,0.60936 0.225591,0.86369 -0.04466,1.79337 -0.375574,1.29189 -1.294122,2.62374 -2.183636,3.16609 -0.700349,0.42702 -1.010751,0.44926 -2.284051,0.16361 z m 64.712854,-18.79856 c -10.24114,-0.59805 -16.400797,-4.05636 -18.302172,-10.27569 -0.404779,-1.32407 -0.419635,-1.77122 -0.419635,-12.63187 0,-6.19256 0.05974,-15.46388 0.132785,-20.60294 l 0.132784,-9.34374 h 21.967168 21.96713 l 0.14557,20.27362 c 0.16288,22.68803 0.21498,21.66764 -1.24867,24.45475 -1.77231,3.37483 -5.41217,5.86698 -10.45112,7.15573 -3.28968,0.84136 -9.14406,1.24926 -13.92384,0.97014 z m 6.73667,-7.00936 c 2.80301,-0.28224 5.16936,-0.86458 6.9045,-1.69913 1.53295,-0.73733 3.50428,-2.37941 3.99447,-3.32733 l 0.29555,-0.57151 h -14.42196 c -7.93206,0 -14.419679,0.0676 -14.416925,0.15017 0.01039,0.309 1.325211,1.85255 2.097448,2.46216 3.144118,2.48205 9.130627,3.6317 15.546917,2.98564 z m -21.616448,-4.81883 c 0.197546,-0.5667 0.277381,-0.61269 0.890624,-0.51317 0.735254,0.11931 0.920843,-0.21202 0.373304,-0.66644 -0.165202,-0.1371 -0.300354,-0.36236 -0.300354,-0.50058 0,-0.13823 0.135152,-0.36349 0.300354,-0.50059 0.479927,-0.3983 0.351587,-0.6007 -0.380889,-0.6007 -0.576889,0 -0.713297,-0.092 -0.890624,-0.6007 -0.115175,-0.33038 -0.263854,-0.6007 -0.330355,-0.6007 -0.06652,0 -0.21518,0.27032 -0.330355,0.6007 -0.177352,0.5087 -0.313735,0.6007 -0.890648,0.6007 -0.732477,0 -0.860792,0.2024 -0.380865,0.6007 0.165178,0.1371 0.300353,0.36236 0.300353,0.50059 0,0.13822 -0.135175,0.36348 -0.300353,0.50058 -0.547539,0.45442 -0.361974,0.78575 0.37328,0.66644 0.613243,-0.0995 0.693078,-0.0535 0.890624,0.51317 0.119354,0.34237 0.271439,0.62249 0.337964,0.62249 0.0665,0 0.218586,-0.28012 0.33794,-0.62249 z m 37.385228,-0.005 c 0.20252,-0.5809 0.27132,-0.61855 0.93386,-0.51103 0.39338,0.0638 0.68388,0.0532 0.64554,-0.0237 -0.0383,-0.0768 -0.1922,-0.38382 -0.34195,-0.68216 -0.23643,-0.47106 -0.22841,-0.6094 0.0611,-1.05123 l 0.33338,-0.50879 h -0.71586 c -0.61537,0 -0.74523,-0.0843 -0.92524,-0.6007 -0.26566,-0.76209 -0.42391,-0.75704 -0.7183,0.0229 -0.21281,0.56378 -0.30349,0.61567 -0.94495,0.54079 -0.39026,-0.0456 -0.70955,-0.0473 -0.70955,-0.004 0,0.0435 0.17888,0.33029 0.39753,0.63734 0.39655,0.55691 0.39655,0.55953 0,1.06366 -0.53698,0.68265 -0.50971,0.73559 0.31036,0.60252 0.65182,-0.10578 0.72665,-0.0651 0.94495,0.51317 0.29832,0.79038 0.45389,0.79058 0.72914,9.6e-4 z m -21.35725,-2.35988 0.65392,-0.58418 v -8.75992 -8.75991 l -1.40164,-0.27335 c -2.706754,-0.52788 -5.377951,-2.24587 -6.206374,-3.99165 -0.847724,-1.78644 -0.547926,-3.3568 0.954758,-5.00097 2.910991,-3.18507 9.414146,-4.02407 14.056186,-1.81344 1.78101,0.84814 2.5809,1.52621 3.31944,2.81385 1.91193,3.33348 -0.96261,7.03849 -6.21712,8.01326 l -1.30151,0.24145 -0.0574,2.0671 c -0.0524,1.88807 -0.022,2.09183 0.35042,2.3527 0.22427,0.15708 0.40775,0.50576 0.40775,0.77483 0,0.26908 0.20274,0.69197 0.45053,0.93976 l 0.45053,0.45052 0.10728,-1.40163 c 0.086,-1.12261 0.0363,-1.52122 -0.24953,-2.00233 -0.43795,-0.73723 -0.45613,-1.53278 -0.0529,-2.31263 0.37043,-0.71631 0.68274,-0.74336 1.27719,-0.11059 0.2481,0.26409 0.71433,0.5344 1.03607,0.60069 0.32175,0.0663 0.87782,0.17657 1.23573,0.24505 1.34041,0.25645 1.7263,1.25201 0.96836,2.49831 l -0.38323,0.63018 0.97585,2.78007 c 0.53671,1.52904 1.33989,3.39288 1.78484,4.14186 0.654,1.10081 0.80903,1.55248 0.80903,2.35681 0,0.58542 -0.13105,1.18213 -0.31835,1.44956 -0.29953,0.42762 -0.27878,0.53697 0.3504,1.84732 l 0.66878,1.39279 1.8021,-0.0507 1.80209,-0.0507 0.239,-0.70082 c 0.28236,-0.828 0.32931,-9.1368 0.12882,-22.79373 l -0.13276,-9.04338 h -15.164 -15.164018 l -0.135006,3.05356 c -0.07426,1.67946 -0.106262,8.87407 -0.07114,15.98802 0.05232,10.59819 0.113508,12.99425 0.338664,13.26546 0.244167,0.29409 0.930433,0.331 6.154028,0.331 h 5.879212 l 0.65392,-0.58418 z m 7.84899,0.10555 0.70528,-0.47861 -0.59626,-0.75032 c -0.34133,-0.42951 -0.59629,-0.99033 -0.59629,-1.31167 0,-0.30874 -0.1003,-0.62335 -0.22291,-0.69912 -0.32891,-0.20327 -0.91773,-1.6589 -1.08257,-2.67619 -0.10367,-0.63985 -0.43106,-1.24657 -1.17124,-2.17047 l -1.02734,-1.28237 -0.0544,4.0709 c -0.0589,4.40897 0.0403,4.99102 0.93299,5.47619 0.84466,0.45906 2.29601,0.3759 3.11272,-0.17834 z M 86.310497,126.50763 c 0.177327,-0.5087 0.313735,-0.6007 0.890624,-0.6007 0.732476,0 0.860816,-0.2024 0.380889,-0.6007 -0.165202,-0.1371 -0.300354,-0.36236 -0.300354,-0.50058 0,-0.13822 0.135152,-0.36349 0.300354,-0.50059 0.479927,-0.3983 0.351587,-0.6007 -0.380889,-0.6007 -0.576889,0 -0.713297,-0.092 -0.890624,-0.60069 -0.115175,-0.33039 -0.263854,-0.6007 -0.330355,-0.6007 -0.06652,0 -0.21518,0.27031 -0.330355,0.6007 -0.177352,0.5087 -0.313735,0.60069 -0.890648,0.60069 -0.732477,0 -0.860792,0.2024 -0.380865,0.6007 0.165178,0.1371 0.300353,0.36237 0.300353,0.50059 0,0.13822 -0.135175,0.36348 -0.300353,0.50058 -0.479927,0.3983 -0.351612,0.6007 0.380865,0.6007 0.576913,0 0.713296,0.092 0.890648,0.6007 0.115175,0.33039 0.26383,0.6007 0.330355,0.6007 0.0665,0 0.21518,-0.27031 0.330355,-0.6007 z m 37.383633,0 c 0.18049,-0.51778 0.30915,-0.6007 0.93196,-0.6007 h 0.72254 l -0.34528,-0.58453 c -0.32313,-0.54699 -0.32386,-0.61727 -0.0113,-1.09424 0.43741,-0.66757 0.44466,-0.65654 -0.36951,-0.56149 -0.63706,0.0744 -0.724,0.0233 -0.92065,-0.54078 -0.27344,-0.78445 -0.42973,-0.7843 -0.72603,7.2e-4 -0.21281,0.56378 -0.30347,0.61567 -0.94495,0.54079 -0.39026,-0.0456 -0.70955,-0.0476 -0.70955,-0.004 0,0.0431 0.1789,0.30581 0.39753,0.58377 0.397,0.5047 0.39698,0.50614 -0.0138,1.0828 l -0.41115,0.57733 h 0.73185 c 0.62928,0 0.76361,0.0842 0.95857,0.6007 0.12472,0.33039 0.28827,0.60071 0.3635,0.60071 0.0752,0 0.23097,-0.27032 0.34615,-0.60071 z M 87.217861,108.08617 c 0.760497,0 0.779628,-0.0386 0.346756,-0.69924 -0.290159,-0.44285 -0.290159,-0.5243 0,-0.93856 0.457246,-0.65283 0.400576,-0.75326 -0.355911,-0.6305 -0.621287,0.10082 -0.692136,0.0571 -0.91193,-0.56323 -0.227861,-0.64311 -0.250954,-0.65554 -0.527756,-0.28387 -0.159211,0.21377 -0.289483,0.5184 -0.289483,0.67696 0,0.21763 -0.171723,0.26041 -0.700808,0.17455 -0.783759,-0.12719 -0.842941,-0.0305 -0.383087,0.62609 0.29016,0.41426 0.29016,0.49571 0,0.93856 -0.433886,0.66218 -0.41461,0.69924 0.363497,0.69924 0.586454,0 0.714238,0.0906 0.918355,0.65076 l 0.237089,0.65076 0.319388,-0.65076 c 0.264699,-0.53929 0.43321,-0.65076 0.98389,-0.65076 z m 17.823259,0.6007 c 0.19496,-0.51652 0.32932,-0.6007 0.9586,-0.6007 h 0.73185 l -0.39505,-0.55477 c -0.39337,-0.55245 -0.39337,-0.55708 0.003,-1.10129 l 0.39809,-0.5465 h -0.73489 c -0.63271,0 -0.76646,-0.0836 -0.96167,-0.6007 -0.12469,-0.33039 -0.28827,-0.6007 -0.36347,-0.6007 -0.0752,0 -0.23098,0.27031 -0.34615,0.6007 -0.18001,0.51638 -0.3099,0.6007 -0.92527,0.6007 h -0.71583 l 0.33857,0.51675 c 0.3184,0.48592 0.31799,0.55163 -0.007,1.10128 l -0.34531,0.58453 h 0.72258 c 0.6228,0 0.75143,0.0829 0.93195,0.6007 0.11517,0.33039 0.27093,0.6007 0.34615,0.6007 0.0752,0 0.23878,-0.27031 0.36348,-0.6007 z m 18.65301,0 c 0.18049,-0.51778 0.30915,-0.6007 0.93196,-0.6007 h 0.72254 l -0.34528,-0.58453 c -0.32313,-0.54699 -0.32386,-0.61727 -0.0113,-1.09424 0.45039,-0.68736 0.43464,-0.71518 -0.3339,-0.59047 -0.60105,0.0975 -0.69366,0.0462 -0.92536,-0.51317 -0.32374,-0.78162 -0.46155,-0.78044 -0.75859,0.007 -0.2183,0.57831 -0.29313,0.61895 -0.94495,0.51317 -0.82007,-0.13307 -0.84732,-0.0801 -0.31036,0.60252 0.397,0.5047 0.39698,0.50614 -0.0138,1.0828 l -0.41115,0.57744 h 0.73185 c 0.62928,0 0.76361,0.0842 0.95857,0.6007 0.12472,0.33038 0.28827,0.6007 0.3635,0.6007 0.0752,0 0.23097,-0.27032 0.34615,-0.6007 z m -41.017849,-5.86441 c -0.634815,-0.31955 -0.798204,-1.30506 -0.279265,-1.68452 0.286753,-0.20967 4.639701,-0.26017 22.429024,-0.26017 20.11231,0 22.10214,0.0289 22.39873,0.32553 0.46343,0.46341 0.30726,1.31504 -0.2969,1.61916 -0.39304,0.19784 -5.14705,0.25198 -22.12579,0.25198 -16.978754,0 -21.73276,-0.0541 -22.125799,-0.25198 z m 5.00583,-2.74562 c -0.220252,-0.220257 -0.400455,-0.566712 -0.400455,-0.769898 0,-0.813304 1.382823,-1.371375 1.962273,-0.791921 0.39828,0.398273 0.285545,1.307183 -0.204721,1.650579 -0.588169,0.41196 -0.87514,0.39319 -1.357097,-0.0888 z m 4.655427,-0.13261 c -0.798422,-0.275804 -1.451691,-0.566323 -1.451691,-0.645598 0,-0.184091 2.592231,-1.023891 3.160472,-1.023891 0.235905,0 0.860236,0.165957 1.387436,0.368791 0.527177,0.202836 1.138729,0.435691 1.358981,0.517453 0.315403,0.117081 0.06256,0.272686 -1.190228,0.732491 -0.874875,0.321104 -1.640759,0.576714 -1.701994,0.568024 -0.06121,-0.009 -0.764531,-0.24147 -1.562976,-0.51727 z m 6.401963,0.22137 c -0.490266,-0.343396 -0.603002,-1.252306 -0.204745,-1.650579 0.34021,-0.340201 1.275281,-0.297994 1.647644,0.07437 0.42855,0.428541 0.39521,1.00643 -0.0858,1.487449 -0.481958,0.48194 -0.768953,0.50072 -1.357098,0.0888 z m 10.906849,0.17149 c -0.19897,-0.0516 -0.44915,-0.32359 -0.55594,-0.604499 -0.44735,-1.176573 1.18556,-2.043585 1.90753,-1.012831 0.41198,0.588148 0.39318,0.875134 -0.0888,1.35708 -0.3998,0.39979 -0.58063,0.43706 -1.26284,0.26025 z m 4.28439,-0.440587 c -0.82069,-0.308325 -1.38233,-0.620041 -1.25687,-0.697581 0.39756,-0.245705 2.52563,-0.914147 2.9266,-0.919259 0.52785,-0.0067 3.11781,0.839929 3.11781,1.019213 0,0.126176 -2.94252,1.197544 -3.20441,1.166734 -0.0547,-0.006 -0.76709,-0.26254 -1.58313,-0.569107 z m 6.43397,0.269097 c -0.49026,-0.343396 -0.60302,-1.252306 -0.20474,-1.650579 0.34021,-0.340201 1.27528,-0.297994 1.64764,0.07437 0.42855,0.428541 0.39519,1.00643 -0.0858,1.487449 -0.48193,0.48194 -0.76892,0.50072 -1.35707,0.0888 z M 82.20674,99.9109 c -0.433137,-0.478597 -0.41804,-0.748581 0.06909,-1.235693 0.562564,-0.562576 3.17313,-0.586947 3.673276,-0.03429 0.41618,0.459871 0.421953,0.91628 0.01667,1.321506 -0.483237,0.483227 -3.310214,0.444487 -3.759101,-0.05152 z m 19.53175,0.12589 c -0.33692,-0.336939 -0.29907,-1.073952 0.0744,-1.447396 0.25361,-0.2536 0.81697,-0.314653 2.90338,-0.314653 2.32176,0 2.63004,0.0413 2.98921,0.400466 0.48205,0.482063 0.48991,0.584148 0.0888,1.156846 -0.29641,0.423167 -0.44688,0.445017 -3.06358,0.445017 -1.87336,0 -2.82857,-0.0767 -2.99216,-0.24028 z m 21.89982,-0.07437 c -0.41807,-0.41807 -0.39787,-0.949599 0.0515,-1.356298 0.5687,-0.514658 3.10286,-0.466542 3.63849,0.06908 0.48208,0.482063 0.4899,0.584148 0.0888,1.156846 -0.27724,0.395789 -0.48611,0.445019 -1.88792,0.445019 -1.16595,0 -1.6581,-0.0819 -1.89087,-0.31465 z M 82.520597,97.562571 c -0.484131,-0.339109 -0.587034,-1.068044 -0.204745,-1.45035 0.348786,-0.348769 44.623658,-0.348769 44.972418,0 0.38232,0.382306 0.27941,1.111241 -0.20474,1.45035 -0.39616,0.277489 -2.84183,0.311704 -22.28145,0.311704 -19.439626,0 -21.885304,-0.03422 -22.281483,-0.311704 z m 7.763263,-2.469655 c -0.276053,-0.08878 -0.775063,-0.302698 -1.108969,-0.475362 -0.562347,-0.290799 -0.695059,-0.284135 -1.800815,0.09045 -2.126483,0.720379 -3.964256,0.179497 -4.870847,-1.433546 -0.386952,-0.688474 -0.467898,-1.164609 -0.520848,-3.063452 -0.06457,-2.314713 -0.390792,-3.668638 -1.062951,-4.411352 -0.451521,-0.498923 -1.319801,-0.940549 -1.849223,-0.940549 -0.70977,0 -0.256293,-0.346626 0.77813,-0.594781 1.333956,-0.320011 2.328933,-0.02843 3.301398,0.967476 0.51848,0.530949 0.88531,0.750059 1.142979,0.682676 0.208707,-0.05458 0.611601,-0.04097 0.895311,0.03024 l 0.515847,0.129468 -0.512634,0.609226 c -0.281947,0.335073 -0.512611,0.692414 -0.512611,0.794096 0,0.335591 0.732163,0.192253 1.101263,-0.215598 0.514326,-0.568323 0.700833,-0.498653 0.700833,0.261815 0,0.58177 0.0987,0.705832 0.811876,1.020491 1.000968,0.441621 0.981788,0.877737 -0.06102,1.387277 -0.649621,0.317433 -0.750858,0.459165 -0.750858,1.051226 0,0.376379 -0.05107,0.684327 -0.113484,0.684327 -0.06242,0 -0.40031,-0.214806 -0.750883,-0.477343 -0.350549,-0.262542 -0.840139,-0.538925 -1.087905,-0.614195 -0.367627,-0.111665 -0.45053,-0.05948 -0.45053,0.283541 0,0.668869 0.530268,1.757387 0.971039,1.993278 0.616432,0.329906 1.322699,0.259649 1.892075,-0.188222 0.431496,-0.339405 0.496016,-0.517528 0.400552,-1.105813 -0.148244,-0.913464 0.344027,-1.493114 1.267986,-1.493114 0.846226,0 1.372629,0.702067 1.180905,1.574949 -0.250182,1.139016 1.358304,1.883212 2.437127,1.12758 0.476207,-0.333555 0.958333,-1.558858 0.78801,-2.002716 -0.144355,-0.3762 -1.099644,-0.05709 -1.815695,0.606528 l -0.512852,0.475285 -0.125682,-0.786081 c -0.104039,-0.650615 -0.250834,-0.84726 -0.851734,-1.141103 -0.954105,-0.466567 -0.917075,-0.86698 0.124982,-1.35101 0.747526,-0.347232 0.850985,-0.475026 0.850985,-1.051226 0,-0.360767 0.0901,-0.655941 0.200228,-0.655941 0.110126,0 0.200227,0.08779 0.200227,0.195092 0,0.276415 1.156096,0.84116 1.287311,0.628845 0.05974,-0.09667 -0.108001,-0.494988 -0.372773,-0.885155 -0.520026,-0.766302 -0.412532,-0.939948 0.58189,-0.939948 0.312624,0 0.499155,-0.145998 0.575632,-0.450525 0.06223,-0.247788 0.244046,-0.629539 0.404078,-0.848333 0.281343,-0.384661 0.304219,-0.385828 0.691508,-0.03532 0.220301,0.199368 0.45541,0.581116 0.52249,0.848335 0.0867,0.345418 0.260786,0.485846 0.602325,0.485846 1.019351,0 1.158247,0.18977 0.613099,0.837655 -0.275232,0.327087 -0.500412,0.714514 -0.500412,0.860947 0,0.35996 0.681363,0.167037 1.119356,-0.316929 0.495242,-0.547259 0.682739,-0.471623 0.682739,0.275434 0,0.5762 0.103459,0.703994 0.850985,1.051226 0.468043,0.217407 0.851009,0.530442 0.851009,0.695634 0,0.165192 -0.382966,0.478227 -0.851009,0.695634 -0.790837,0.367342 -0.850985,0.451199 -0.850985,1.186246 v 0.790962 l -0.45053,-0.410349 c -0.560366,-0.510393 -1.227525,-0.86086 -1.638753,-0.86086 -0.662062,0 -0.1395,1.995992 0.596503,2.278421 0.622592,0.238913 1.442753,0.12125 1.953117,-0.280193 0.431471,-0.339405 0.495991,-0.517528 0.400527,-1.105813 -0.148244,-0.913464 0.344027,-1.493114 1.268011,-1.493114 0.8283,0 1.38884,0.720978 1.18668,1.526407 -0.28393,1.131279 1.36002,1.926512 2.43133,1.176122 0.48193,-0.337558 0.95763,-1.560713 0.78349,-2.01455 -0.1,-0.260566 -0.20489,-0.258631 -0.86193,0.0159 -0.41144,0.171909 -0.89383,0.444483 -1.07201,0.605716 -0.40074,0.362668 -0.59177,0.193017 -0.59177,-0.525539 0,-0.437806 -0.15406,-0.626125 -0.75088,-0.917736 -0.950167,-0.464289 -0.952172,-0.869215 -0.007,-1.331362 0.57435,-0.280697 0.77296,-0.516453 0.86976,-1.032457 l 0.12546,-0.668695 0.70578,0.478961 c 0.38819,0.263431 0.7849,0.430079 0.88155,0.370337 0.19518,-0.120622 -0.2935,-1.183347 -0.64366,-1.399749 -0.32035,-0.197998 0.18834,-0.481384 0.87096,-0.485186 0.38804,-0.0022 0.55196,-0.106539 0.5551,-0.353474 0.002,-0.192725 0.17576,-0.573352 0.38514,-0.845837 0.36857,-0.479676 0.39333,-0.483981 0.77847,-0.135439 0.21878,0.197995 0.45266,0.57862 0.51971,0.845837 0.0867,0.345418 0.26079,0.485848 0.60233,0.485848 1.01937,0 1.15827,0.189768 0.6131,0.837653 -0.90133,1.071172 -0.43486,1.474465 0.61573,0.532312 0.49007,-0.439506 0.68595,-0.30925 0.68595,0.456136 0,0.469707 0.14421,0.621744 0.91164,0.96121 0.80236,0.354923 0.88652,0.450117 0.70235,0.794269 -0.1151,0.215059 -0.52534,0.495324 -0.91164,0.622814 -0.62099,0.204947 -0.70235,0.311153 -0.70235,0.91708 0,0.37691 -0.041,0.68529 -0.0912,0.68529 -0.0502,0 -0.42316,-0.225265 -0.82888,-0.500585 -0.97471,-0.661464 -1.48271,-0.658058 -1.48271,0.01 0,0.653117 0.49109,1.607128 0.91002,1.767893 0.65723,0.252196 1.57457,0.117368 2.01469,-0.296109 0.35304,-0.331662 0.42411,-0.56527 0.33637,-1.105814 -0.13616,-0.839199 0.35483,-1.477197 1.13682,-1.477197 0.92548,0 1.31318,0.451913 1.27403,1.485026 -0.0278,0.734068 0.0508,0.976435 0.39494,1.217498 0.44597,0.312354 1.27222,0.39194 1.83338,0.176596 0.44396,-0.170366 0.91002,-1.128426 0.91002,-1.870698 v -0.61333 l -0.74354,0.310675 c -0.40895,0.170871 -0.8891,0.442392 -1.06698,0.603385 -0.48408,0.438075 -0.59228,0.363224 -0.59228,-0.409723 0,-0.634018 -0.079,-0.734032 -0.81067,-1.026808 -1.00128,-0.400631 -0.98205,-0.831727 0.0598,-1.340804 0.52131,-0.254723 0.7518,-0.4996 0.75393,-0.800933 0.004,-0.586039 0.3025,-1.04992 0.48519,-0.754338 0.0758,0.122668 0.40244,0.359866 0.72584,0.527102 0.55034,0.284584 0.58802,0.279828 0.58802,-0.07424 0,-0.208066 -0.22718,-0.60548 -0.50486,-0.883139 -0.4291,-0.429106 -0.45666,-0.523308 -0.18385,-0.628004 0.17654,-0.06774 0.53146,-0.123171 0.78869,-0.123171 0.34176,0 0.56653,-0.202215 0.83463,-0.750873 0.2018,-0.412982 0.50206,-0.750876 0.66726,-0.750876 0.16518,0 0.46543,0.337894 0.66723,0.750876 0.26811,0.548658 0.49287,0.750873 0.83463,0.750873 0.25724,0 0.61216,0.05543 0.78869,0.123171 0.27281,0.104696 0.24525,0.198898 -0.18385,0.628004 -0.59597,0.595955 -0.69424,1.305433 -0.15443,1.114921 0.19272,-0.06802 0.54162,-0.295341 0.77533,-0.505161 0.38335,-0.344162 0.43724,-0.349437 0.55065,-0.0539 0.0691,0.180173 0.12571,0.501158 0.12571,0.713299 0,0.263098 0.2546,0.487589 0.80093,0.706183 0.55527,0.222182 0.80094,0.441565 0.80094,0.715303 0,0.274715 -0.24369,0.490549 -0.80094,0.709451 -0.70832,0.278237 -0.80093,0.390769 -0.80093,0.97324 0,0.362243 -0.0901,0.714314 -0.20025,0.782377 -0.11013,0.06806 -0.20023,0.027 -0.20023,-0.09124 0,-0.277591 -1.196,-1.008321 -1.65192,-1.009294 -0.26798,-4.84e-4 -0.3504,0.166262 -0.3504,0.70917 0,1.430299 1.70144,2.224873 2.82171,1.317733 0.36516,-0.295686 0.45324,-0.545684 0.41579,-1.180235 -0.0583,-0.987808 0.34145,-1.448116 1.25753,-1.448116 0.77543,0 1.15206,0.373542 1.15648,1.146997 0.006,1.043815 0.14593,1.387509 0.66045,1.621943 0.75537,0.34417 1.21081,0.289411 1.79871,-0.216276 0.35765,-0.307646 0.56097,-0.725638 0.64018,-1.316035 l 0.11604,-0.865195 -0.77187,0.322504 c -0.42452,0.177376 -0.91761,0.454421 -1.09578,0.615651 -0.41048,0.371473 -0.59124,0.191237 -0.59382,-0.592087 -0.002,-0.532097 -0.11501,-0.664855 -0.81988,-0.961015 -0.96202,-0.404208 -0.94224,-0.700462 0.084,-1.258237 0.61537,-0.334458 0.73693,-0.50773 0.73736,-1.051226 0,-0.761567 0.0681,-0.784179 0.74685,-0.25029 1.02809,0.808697 1.49913,0.191502 0.53544,-0.701603 l -0.52034,-0.482247 0.52355,-0.131405 c 0.28796,-0.07227 0.70714,-0.0834 0.93152,-0.02473 0.29533,0.07723 0.64609,-0.131492 1.27079,-0.756171 0.99097,-0.990984 1.98377,-1.267336 3.28965,-0.915698 0.93191,0.250938 1.28009,0.608688 0.59349,0.609799 -0.75279,0.0012 -1.71649,0.724005 -2.1911,1.643321 -0.36388,0.704903 -0.4663,1.331473 -0.57136,3.495627 -0.11812,2.433144 -0.17066,2.701259 -0.68054,3.47172 -1.02983,1.556184 -3.0781,1.985672 -5.21388,1.093277 -0.70502,-0.294575 -0.77886,-0.287445 -1.47428,0.142345 -1.00541,0.621381 -2.63692,0.627382 -3.80396,0.01399 l -0.85804,-0.450991 -0.84393,0.437957 c -1.10843,0.575224 -2.57257,0.58006 -3.66646,0.01213 l -0.82019,-0.425847 -0.96579,0.48894 c -1.23321,0.624338 -2.16171,0.618221 -3.44791,-0.02271 l -1.02676,-0.511654 -0.77391,0.39482 c -1.34492,0.686133 -2.06942,0.720188 -3.45085,0.162206 -1.240324,-0.500999 -1.243223,-0.50118 -1.891202,-0.118851 -0.35695,0.2106 -1.067638,0.44029 -1.579306,0.510424 -0.766995,0.105126 -1.122858,0.03332 -2.026889,-0.408982 L 93.91075,94.25114 93.117522,94.655813 c -0.937172,0.478106 -2.132836,0.662584 -2.833596,0.437188 z"
       id="path4515"
       inkscape:connector-curvature="0" />
  </g>
</svg>
