<?xml version="1.0" encoding="UTF-8" standalone="no"?>
<svg
   xmlns:dc="http://purl.org/dc/elements/1.1/"
   xmlns:cc="http://creativecommons.org/ns#"
   xmlns:rdf="http://www.w3.org/1999/02/22-rdf-syntax-ns#"
   xmlns:svg="http://www.w3.org/2000/svg"
   xmlns="http://www.w3.org/2000/svg"
   xmlns:sodipodi="http://sodipodi.sourceforge.net/DTD/sodipodi-0.dtd"
   xmlns:inkscape="http://www.inkscape.org/namespaces/inkscape"
   version="1.1"
   id="svg25684"
   viewBox="0 0 153 167"
   height="47.131111mm"
   width="43.18mm"
   sodipodi:docname="audio.svg"
   inkscape:version="0.92.2 (unknown)">
  <sodipodi:namedview
     pagecolor="#ffffff"
     bordercolor="#666666"
     borderopacity="1"
     objecttolerance="10"
     gridtolerance="10"
     guidetolerance="10"
     inkscape:pageopacity="0"
     inkscape:pageshadow="2"
     inkscape:window-width="1920"
     inkscape:window-height="1056"
     id="namedview9"
     showgrid="false"
     inkscape:zoom="3.7472425"
     inkscape:cx="95.765065"
     inkscape:cy="100.03054"
     inkscape:window-x="1360"
     inkscape:window-y="24"
     inkscape:window-maximized="1"
     inkscape:current-layer="svg25684" />
  <defs
     id="defs25686" />
  <metadata
     id="metadata25689">
    <rdf:RDF>
      <cc:Work
         rdf:about="">
        <dc:format>image/svg+xml</dc:format>
        <dc:type
           rdf:resource="http://purl.org/dc/dcmitype/StillImage" />
        <dc:title></dc:title>
      </cc:Work>
    </rdf:RDF>
  </metadata>
  <rect
     style="fill:#d1d1d1"
     x="-1.7712402e-08"
     y="3.5156245e-07"
     width="153"
     height="167"
     id="rect11825" />
  <path
     style="opacity:0;fill:#ededed;fill-opacity:1;stroke-width:0.25018397"
     d="M 102.19104,91.38506 C 95.710135,90.49141 90.402137,87.205269 86.84175,81.882433 84.257535,78.018992 83.171391,74.074604 83.356937,69.227161 l 0.108664,-2.838872 -0.721784,-0.298972 c -0.396982,-0.164436 -1.211136,-0.788325 -1.809232,-1.386422 -3.089087,-3.089087 -2.151832,-8.002268 1.874194,-9.824706 1.22592,-0.554931 3.074053,-0.671151 4.152489,-0.261131 1.058989,0.402627 1.147495,-0.01463 0.341879,-1.611769 -0.817406,-1.620516 -0.946705,-3.024269 -0.437355,-4.748192 0.406025,-1.37422 2.478588,-3.446784 3.852809,-3.85281 2.451994,-0.724464 5.012567,0.01352 6.63876,1.913361 0.487152,0.569128 0.959369,1.034778 1.04937,1.034778 0.09,0 0.163638,-0.373605 0.163638,-0.830235 0,-4.70654 4.890051,-7.788992 9.000751,-5.673632 1.87832,0.966581 3.24297,3.196619 3.25277,5.315494 0.007,1.436553 0.39704,1.543358 1.18638,0.324569 0.30548,-0.471686 1.09356,-1.173935 1.75128,-1.560553 1.02658,-0.603431 1.46427,-0.702942 3.09187,-0.702942 1.67378,0 2.03953,0.08874 3.12068,0.757166 3.08297,1.906049 3.79995,6.10778 1.56573,9.175647 -0.45026,0.61826 -0.13233,0.773376 0.96219,0.469454 3.93723,-1.093267 7.81914,1.692295 7.83622,5.623072 0.004,0.965907 -0.16181,1.527118 -0.70304,2.376747 -0.66896,1.050143 -2.01686,2.417128 -3.19895,3.244251 -0.49284,0.344852 -0.51363,0.484784 -0.2967,1.996543 0.51219,3.569427 -0.33106,7.949971 -2.28753,11.883244 -2.06988,4.161297 -5.1992,7.289237 -9.39497,9.390832 -1.37601,0.689222 -3.34621,1.462764 -4.37822,1.71898 -2.28669,0.567717 -5.85272,0.804614 -7.88779,0.523997 z"
     id="path4544"
     inkscape:connector-curvature="0" />
  <path
     style="opacity:0;fill:#ededed;fill-opacity:1;stroke-width:0.25018397"
     d="M 102.19104,91.38506 C 95.710135,90.49141 90.402137,87.205269 86.84175,81.882433 84.257535,78.018992 83.171391,74.074604 83.356937,69.227161 l 0.108664,-2.838872 -0.721784,-0.298972 c -0.396982,-0.164436 -1.211136,-0.788325 -1.809232,-1.386422 -3.089087,-3.089087 -2.151832,-8.002268 1.874194,-9.824706 1.22592,-0.554931 3.074053,-0.671151 4.152489,-0.261131 1.058989,0.402627 1.147495,-0.01463 0.341879,-1.611769 -0.817406,-1.620516 -0.946705,-3.024269 -0.437355,-4.748192 0.406025,-1.37422 2.478588,-3.446784 3.852809,-3.85281 2.451994,-0.724464 5.012567,0.01352 6.63876,1.913361 0.487152,0.569128 0.959369,1.034778 1.04937,1.034778 0.09,0 0.163638,-0.373605 0.163638,-0.830235 0,-4.70654 4.890051,-7.788992 9.000751,-5.673632 1.87832,0.966581 3.24297,3.196619 3.25277,5.315494 0.007,1.436553 0.39704,1.543358 1.18638,0.324569 0.30548,-0.471686 1.09356,-1.173935 1.75128,-1.560553 1.02658,-0.603431 1.46427,-0.702942 3.09187,-0.702942 1.67378,0 2.03953,0.08874 3.12068,0.757166 3.08297,1.906049 3.79995,6.10778 1.56573,9.175647 -0.45026,0.61826 -0.13233,0.773376 0.96219,0.469454 3.93723,-1.093267 7.81914,1.692295 7.83622,5.623072 0.004,0.965907 -0.16181,1.527118 -0.70304,2.376747 -0.66896,1.050143 -2.01686,2.417128 -3.19895,3.244251 -0.49284,0.344852 -0.51363,0.484784 -0.2967,1.996543 0.51219,3.569427 -0.33106,7.949971 -2.28753,11.883244 -2.06988,4.161297 -5.1992,7.289237 -9.39497,9.390832 -1.37601,0.689222 -3.34621,1.462764 -4.37822,1.71898 -2.28669,0.567717 -5.85272,0.804614 -7.88779,0.523997 z"
     id="path4546"
     inkscape:connector-curvature="0" />
  <path
     style="opacity:0;fill:#ededed;fill-opacity:1;stroke-width:0.25018397"
     d="M 102.19104,91.38506 C 95.710135,90.49141 90.402137,87.205269 86.84175,81.882433 84.257535,78.018992 83.171391,74.074604 83.356937,69.227161 l 0.108664,-2.838872 -0.721784,-0.298972 c -0.396982,-0.164436 -1.211136,-0.788325 -1.809232,-1.386422 -3.089087,-3.089087 -2.151832,-8.002268 1.874194,-9.824706 1.22592,-0.554931 3.074053,-0.671151 4.152489,-0.261131 1.058989,0.402627 1.147495,-0.01463 0.341879,-1.611769 -0.817406,-1.620516 -0.946705,-3.024269 -0.437355,-4.748192 0.406025,-1.37422 2.478588,-3.446784 3.852809,-3.85281 2.451994,-0.724464 5.012567,0.01352 6.63876,1.913361 0.487152,0.569128 0.959369,1.034778 1.04937,1.034778 0.09,0 0.163638,-0.373605 0.163638,-0.830235 0,-4.70654 4.890051,-7.788992 9.000751,-5.673632 1.87832,0.966581 3.24297,3.196619 3.25277,5.315494 0.007,1.436553 0.39704,1.543358 1.18638,0.324569 0.30548,-0.471686 1.09356,-1.173935 1.75128,-1.560553 1.02658,-0.603431 1.46427,-0.702942 3.09187,-0.702942 1.67378,0 2.03953,0.08874 3.12068,0.757166 3.08297,1.906049 3.79995,6.10778 1.56573,9.175647 -0.45026,0.61826 -0.13233,0.773376 0.96219,0.469454 3.93723,-1.093267 7.81914,1.692295 7.83622,5.623072 0.004,0.965907 -0.16181,1.527118 -0.70304,2.376747 -0.66896,1.050143 -2.01686,2.417128 -3.19895,3.244251 -0.49284,0.344852 -0.51363,0.484784 -0.2967,1.996543 0.51219,3.569427 -0.33106,7.949971 -2.28753,11.883244 -2.06988,4.161297 -5.1992,7.289237 -9.39497,9.390832 -1.37601,0.689222 -3.34621,1.462764 -4.37822,1.71898 -2.28669,0.567717 -5.85272,0.804614 -7.88779,0.523997 z"
     id="path4548"
     inkscape:connector-curvature="0" />
  <path
     style="opacity:0;fill:#ededed;fill-opacity:1;stroke-width:0.25018397"
     d="M 102.19104,91.38506 C 95.710135,90.49141 90.402137,87.205269 86.84175,81.882433 84.257535,78.018992 83.171391,74.074604 83.356937,69.227161 l 0.108664,-2.838872 -0.721784,-0.298972 c -0.396982,-0.164436 -1.211136,-0.788325 -1.809232,-1.386422 -3.089087,-3.089087 -2.151832,-8.002268 1.874194,-9.824706 1.22592,-0.554931 3.074053,-0.671151 4.152489,-0.261131 1.058989,0.402627 1.147495,-0.01463 0.341879,-1.611769 -0.817406,-1.620516 -0.946705,-3.024269 -0.437355,-4.748192 0.406025,-1.37422 2.478588,-3.446784 3.852809,-3.85281 2.451994,-0.724464 5.012567,0.01352 6.63876,1.913361 0.487152,0.569128 0.959369,1.034778 1.04937,1.034778 0.09,0 0.163638,-0.373605 0.163638,-0.830235 0,-4.70654 4.890051,-7.788992 9.000751,-5.673632 1.87832,0.966581 3.24297,3.196619 3.25277,5.315494 0.007,1.436553 0.39704,1.543358 1.18638,0.324569 0.30548,-0.471686 1.09356,-1.173935 1.75128,-1.560553 1.02658,-0.603431 1.46427,-0.702942 3.09187,-0.702942 1.67378,0 2.03953,0.08874 3.12068,0.757166 3.08297,1.906049 3.79995,6.10778 1.56573,9.175647 -0.45026,0.61826 -0.13233,0.773376 0.96219,0.469454 3.93723,-1.093267 7.81914,1.692295 7.83622,5.623072 0.004,0.965907 -0.16181,1.527118 -0.70304,2.376747 -0.66896,1.050143 -2.01686,2.417128 -3.19895,3.244251 -0.49284,0.344852 -0.51363,0.484784 -0.2967,1.996543 0.51219,3.569427 -0.33106,7.949971 -2.28753,11.883244 -2.06988,4.161297 -5.1992,7.289237 -9.39497,9.390832 -1.37601,0.689222 -3.34621,1.462764 -4.37822,1.71898 -2.28669,0.567717 -5.85272,0.804614 -7.88779,0.523997 z"
     id="path4550"
     inkscape:connector-curvature="0" />
  <path
     style="opacity:0;fill:#ededed;fill-opacity:1;stroke-width:0.25018397"
     d="M 102.19104,91.38506 C 95.710135,90.49141 90.402137,87.205269 86.84175,81.882433 84.257535,78.018992 83.171391,74.074604 83.356937,69.227161 l 0.108664,-2.838872 -0.721784,-0.298972 c -0.396982,-0.164436 -1.211136,-0.788325 -1.809232,-1.386422 -3.089087,-3.089087 -2.151832,-8.002268 1.874194,-9.824706 1.22592,-0.554931 3.074053,-0.671151 4.152489,-0.261131 1.058989,0.402627 1.147495,-0.01463 0.341879,-1.611769 -0.817406,-1.620516 -0.946705,-3.024269 -0.437355,-4.748192 0.406025,-1.37422 2.478588,-3.446784 3.852809,-3.85281 2.451994,-0.724464 5.012567,0.01352 6.63876,1.913361 0.487152,0.569128 0.959369,1.034778 1.04937,1.034778 0.09,0 0.163638,-0.373605 0.163638,-0.830235 0,-4.70654 4.890051,-7.788992 9.000751,-5.673632 1.87832,0.966581 3.24297,3.196619 3.25277,5.315494 0.007,1.436553 0.39704,1.543358 1.18638,0.324569 0.30548,-0.471686 1.09356,-1.173935 1.75128,-1.560553 1.02658,-0.603431 1.46427,-0.702942 3.09187,-0.702942 1.67378,0 2.03953,0.08874 3.12068,0.757166 3.08297,1.906049 3.79995,6.10778 1.56573,9.175647 -0.45026,0.61826 -0.13233,0.773376 0.96219,0.469454 3.93723,-1.093267 7.81914,1.692295 7.83622,5.623072 0.004,0.965907 -0.16181,1.527118 -0.70304,2.376747 -0.66896,1.050143 -2.01686,2.417128 -3.19895,3.244251 -0.49284,0.344852 -0.51363,0.484784 -0.2967,1.996543 0.51219,3.569427 -0.33106,7.949971 -2.28753,11.883244 -2.06988,4.161297 -5.1992,7.289237 -9.39497,9.390832 -1.37601,0.689222 -3.34621,1.462764 -4.37822,1.71898 -2.28669,0.567717 -5.85272,0.804614 -7.88779,0.523997 z"
     id="path4552"
     inkscape:connector-curvature="0" />
  <path
     style="opacity:0;fill:#ededed;fill-opacity:1;stroke-width:0.2668629"
     d="M 0.02129193,89.070943 V 0.07216619 H 17.914367 c 14.803167,0 17.85622,0.0611923 17.679667,0.3543531 -0.117375,0.19489419 -2.431233,2.77679281 -5.141909,5.73755231 l -4.928502,5.3831994 h -9.81857 -9.8185698 l 0.069612,11.274957 0.069612,11.274958 9.5018868,0.07005 9.501887,0.07004 6.547663,7.98702 c 3.601216,4.392862 6.62073,7.913953 6.710035,7.82465 0.0893,-0.0893 0.16237,-11.370612 0.16237,-25.069575 V 0.07216619 h 62.312491 62.31248 V 89.070943 178.06972 H 81.547907 0.02129193 Z M 116.20506,138.90759 c -0.45542,-1.87107 -2.7224,-7.49312 -4.39357,-10.89591 -6.35843,-12.94689 -15.343857,-21.52044 -25.726913,-24.54765 -3.245731,-0.9463 -8.530737,-1.18334 -11.958658,-0.53635 -13.392653,2.52772 -25.28218,15.17832 -31.683474,33.71157 l -1.036946,3.00221 H 78.894591 116.38368 Z M 84.735857,96.162998 C 95.313152,93.375463 102.53905,83.460818 101.8798,72.639797 l -0.16171,-2.654416 2.09594,-2.065754 c 2.45796,-2.422568 2.87763,-3.412216 2.39711,-5.652791 -0.62643,-2.92098 -3.3566,-5.08601 -6.413605,-5.08601 -0.844773,0 -1.831643,0.112422 -2.193042,0.249827 -0.955244,0.363182 -1.033186,0.08773 -0.292068,-1.032175 1.05651,-1.596497 1.35165,-3.576064 0.81006,-5.433246 -0.86126,-2.953372 -3.224219,-4.725784 -6.300356,-4.725784 -2.124832,0 -3.613113,0.676113 -5.028978,2.284618 -0.567625,0.644858 -1.109376,1.095139 -1.203888,1.000624 -0.09452,-0.09451 -0.17448,-0.722246 -0.177704,-1.394964 -0.02132,-4.448818 -5.067203,-7.478283 -9.20091,-5.524073 -2.348801,1.110398 -3.852304,3.38119 -3.863651,5.835414 -0.0032,0.697179 -0.125949,1.267598 -0.272723,1.267598 -0.146775,0 -0.266863,-0.10596 -0.266863,-0.235466 0,-0.519353 -2.237243,-2.428103 -3.339274,-2.848972 -1.78776,-0.682753 -4.262028,-0.444866 -5.898917,0.567145 -3.00688,1.859009 -4.014074,6.214633 -2.092015,9.046943 0.771957,1.137543 0.662641,1.567131 -0.30515,1.199178 -1.099734,-0.418119 -3.609206,-0.290646 -4.776713,0.242637 -1.396976,0.638101 -3.220944,2.646356 -3.580902,3.942709 -0.458809,1.652349 -0.339161,3.310686 0.344843,4.779598 0.655015,1.406653 2.51368,3.22994 3.560434,3.492659 0.509409,0.127854 0.574099,0.263983 0.407452,0.857438 -0.108955,0.388003 -0.179823,2.026429 -0.157484,3.640949 0.155175,11.215047 8.558296,20.630963 19.974101,22.381506 1.801156,0.276198 6.721395,-0.06629 8.79207,-0.611991 z"
     id="path4554"
     inkscape:connector-curvature="0"
     transform="scale(0.93750001)" />
  <path
     style="opacity:0;fill:#ededed;fill-opacity:1;stroke-width:0.2668629"
     d="M 0.02129193,89.070943 V 0.07216619 H 17.914367 c 14.803167,0 17.85622,0.0611923 17.679667,0.3543531 -0.117375,0.19489419 -2.431233,2.77679281 -5.141909,5.73755231 l -4.928502,5.3831994 h -9.81857 -9.8185698 l 0.069612,11.274957 0.069612,11.274958 9.5018868,0.07005 9.501887,0.07004 6.547663,7.98702 c 3.601216,4.392862 6.62073,7.913953 6.710035,7.82465 0.0893,-0.0893 0.16237,-11.370612 0.16237,-25.069575 V 0.07216619 h 62.312491 62.31248 V 89.070943 178.06972 H 81.547907 0.02129193 Z M 116.20506,138.90759 c -0.45542,-1.87107 -2.7224,-7.49312 -4.39357,-10.89591 -6.35843,-12.94689 -15.343857,-21.52044 -25.726913,-24.54765 -3.245731,-0.9463 -8.530737,-1.18334 -11.958658,-0.53635 -13.392653,2.52772 -25.28218,15.17832 -31.683474,33.71157 l -1.036946,3.00221 H 78.894591 116.38368 Z M 84.735857,96.162998 C 95.313152,93.375463 102.53905,83.460818 101.8798,72.639797 l -0.16171,-2.654416 2.09594,-2.065754 c 2.45796,-2.422568 2.87763,-3.412216 2.39711,-5.652791 -0.62643,-2.92098 -3.3566,-5.08601 -6.413605,-5.08601 -0.844773,0 -1.831643,0.112422 -2.193042,0.249827 -0.955244,0.363182 -1.033186,0.08773 -0.292068,-1.032175 1.05651,-1.596497 1.35165,-3.576064 0.81006,-5.433246 -0.86126,-2.953372 -3.224219,-4.725784 -6.300356,-4.725784 -2.124832,0 -3.613113,0.676113 -5.028978,2.284618 -0.567625,0.644858 -1.109376,1.095139 -1.203888,1.000624 -0.09452,-0.09451 -0.17448,-0.722246 -0.177704,-1.394964 -0.02132,-4.448818 -5.067203,-7.478283 -9.20091,-5.524073 -2.348801,1.110398 -3.852304,3.38119 -3.863651,5.835414 -0.0032,0.697179 -0.125949,1.267598 -0.272723,1.267598 -0.146775,0 -0.266863,-0.10596 -0.266863,-0.235466 0,-0.519353 -2.237243,-2.428103 -3.339274,-2.848972 -1.78776,-0.682753 -4.262028,-0.444866 -5.898917,0.567145 -3.00688,1.859009 -4.014074,6.214633 -2.092015,9.046943 0.771957,1.137543 0.662641,1.567131 -0.30515,1.199178 -1.099734,-0.418119 -3.609206,-0.290646 -4.776713,0.242637 -1.396976,0.638101 -3.220944,2.646356 -3.580902,3.942709 -0.458809,1.652349 -0.339161,3.310686 0.344843,4.779598 0.655015,1.406653 2.51368,3.22994 3.560434,3.492659 0.509409,0.127854 0.574099,0.263983 0.407452,0.857438 -0.108955,0.388003 -0.179823,2.026429 -0.157484,3.640949 0.155175,11.215047 8.558296,20.630963 19.974101,22.381506 1.801156,0.276198 6.721395,-0.06629 8.79207,-0.611991 z"
     id="path4556"
     inkscape:connector-curvature="0"
     transform="scale(0.93750001)" />
  <path
     style="opacity:0;fill:#ededed;fill-opacity:1;stroke-width:0.2668629"
     d="M 0.02129193,89.070943 V 0.07216619 H 17.914367 c 14.803167,0 17.85622,0.0611923 17.679667,0.3543531 -0.117375,0.19489419 -2.431233,2.77679281 -5.141909,5.73755231 l -4.928502,5.3831994 h -9.81857 -9.8185698 l 0.069612,11.274957 0.069612,11.274958 9.5018868,0.07005 9.501887,0.07004 6.547663,7.98702 c 3.601216,4.392862 6.62073,7.913953 6.710035,7.82465 0.0893,-0.0893 0.16237,-11.370612 0.16237,-25.069575 V 0.07216619 h 62.312491 62.31248 V 89.070943 178.06972 H 81.547907 0.02129193 Z M 116.20506,138.90759 c -0.45542,-1.87107 -2.7224,-7.49312 -4.39357,-10.89591 -6.35843,-12.94689 -15.343857,-21.52044 -25.726913,-24.54765 -3.245731,-0.9463 -8.530737,-1.18334 -11.958658,-0.53635 -13.392653,2.52772 -25.28218,15.17832 -31.683474,33.71157 l -1.036946,3.00221 H 78.894591 116.38368 Z M 84.735857,96.162998 C 95.313152,93.375463 102.53905,83.460818 101.8798,72.639797 l -0.16171,-2.654416 2.09594,-2.065754 c 2.45796,-2.422568 2.87763,-3.412216 2.39711,-5.652791 -0.62643,-2.92098 -3.3566,-5.08601 -6.413605,-5.08601 -0.844773,0 -1.831643,0.112422 -2.193042,0.249827 -0.955244,0.363182 -1.033186,0.08773 -0.292068,-1.032175 1.05651,-1.596497 1.35165,-3.576064 0.81006,-5.433246 -0.86126,-2.953372 -3.224219,-4.725784 -6.300356,-4.725784 -2.124832,0 -3.613113,0.676113 -5.028978,2.284618 -0.567625,0.644858 -1.109376,1.095139 -1.203888,1.000624 -0.09452,-0.09451 -0.17448,-0.722246 -0.177704,-1.394964 -0.02132,-4.448818 -5.067203,-7.478283 -9.20091,-5.524073 -2.348801,1.110398 -3.852304,3.38119 -3.863651,5.835414 -0.0032,0.697179 -0.125949,1.267598 -0.272723,1.267598 -0.146775,0 -0.266863,-0.10596 -0.266863,-0.235466 0,-0.519353 -2.237243,-2.428103 -3.339274,-2.848972 -1.78776,-0.682753 -4.262028,-0.444866 -5.898917,0.567145 -3.00688,1.859009 -4.014074,6.214633 -2.092015,9.046943 0.771957,1.137543 0.662641,1.567131 -0.30515,1.199178 -1.099734,-0.418119 -3.609206,-0.290646 -4.776713,0.242637 -1.396976,0.638101 -3.220944,2.646356 -3.580902,3.942709 -0.458809,1.652349 -0.339161,3.310686 0.344843,4.779598 0.655015,1.406653 2.51368,3.22994 3.560434,3.492659 0.509409,0.127854 0.574099,0.263983 0.407452,0.857438 -0.108955,0.388003 -0.179823,2.026429 -0.157484,3.640949 0.155175,11.215047 8.558296,20.630963 19.974101,22.381506 1.801156,0.276198 6.721395,-0.06629 8.79207,-0.611991 z"
     id="path4560"
     inkscape:connector-curvature="0"
     transform="scale(0.93750001)" />
  <path
     style="opacity:0;fill:#ededed;fill-opacity:1;stroke-width:0.2668629"
     d="M 0.02129193,89.070943 V 0.07216619 H 17.914367 c 14.803167,0 17.85622,0.0611923 17.679667,0.3543531 -0.117375,0.19489419 -2.431233,2.77679281 -5.141909,5.73755231 l -4.928502,5.3831994 h -9.81857 -9.8185698 l 0.069612,11.274957 0.069612,11.274958 9.5018868,0.07005 9.501887,0.07004 6.547663,7.98702 c 3.601216,4.392862 6.62073,7.913953 6.710035,7.82465 0.0893,-0.0893 0.16237,-11.370612 0.16237,-25.069575 V 0.07216619 h 62.312491 62.31248 V 89.070943 178.06972 H 81.547907 0.02129193 Z M 116.20506,138.90759 c -0.45542,-1.87107 -2.7224,-7.49312 -4.39357,-10.89591 -6.35843,-12.94689 -15.343857,-21.52044 -25.726913,-24.54765 -3.245731,-0.9463 -8.530737,-1.18334 -11.958658,-0.53635 -13.392653,2.52772 -25.28218,15.17832 -31.683474,33.71157 l -1.036946,3.00221 H 78.894591 116.38368 Z M 84.735857,96.162998 C 95.313152,93.375463 102.53905,83.460818 101.8798,72.639797 l -0.16171,-2.654416 2.09594,-2.065754 c 2.45796,-2.422568 2.87763,-3.412216 2.39711,-5.652791 -0.62643,-2.92098 -3.3566,-5.08601 -6.413605,-5.08601 -0.844773,0 -1.831643,0.112422 -2.193042,0.249827 -0.955244,0.363182 -1.033186,0.08773 -0.292068,-1.032175 1.05651,-1.596497 1.35165,-3.576064 0.81006,-5.433246 -0.86126,-2.953372 -3.224219,-4.725784 -6.300356,-4.725784 -2.124832,0 -3.613113,0.676113 -5.028978,2.284618 -0.567625,0.644858 -1.109376,1.095139 -1.203888,1.000624 -0.09452,-0.09451 -0.17448,-0.722246 -0.177704,-1.394964 -0.02132,-4.448818 -5.067203,-7.478283 -9.20091,-5.524073 -2.348801,1.110398 -3.852304,3.38119 -3.863651,5.835414 -0.0032,0.697179 -0.125949,1.267598 -0.272723,1.267598 -0.146775,0 -0.266863,-0.10596 -0.266863,-0.235466 0,-0.519353 -2.237243,-2.428103 -3.339274,-2.848972 -1.78776,-0.682753 -4.262028,-0.444866 -5.898917,0.567145 -3.00688,1.859009 -4.014074,6.214633 -2.092015,9.046943 0.771957,1.137543 0.662641,1.567131 -0.30515,1.199178 -1.099734,-0.418119 -3.609206,-0.290646 -4.776713,0.242637 -1.396976,0.638101 -3.220944,2.646356 -3.580902,3.942709 -0.458809,1.652349 -0.339161,3.310686 0.344843,4.779598 0.655015,1.406653 2.51368,3.22994 3.560434,3.492659 0.509409,0.127854 0.574099,0.263983 0.407452,0.857438 -0.108955,0.388003 -0.179823,2.026429 -0.157484,3.640949 0.155175,11.215047 8.558296,20.630963 19.974101,22.381506 1.801156,0.276198 6.721395,-0.06629 8.79207,-0.611991 z"
     id="path4566"
     inkscape:connector-curvature="0"
     transform="scale(0.93750001)" />
  <path
     style="opacity:0;fill:#ededed;fill-opacity:1;stroke-width:0.25018397"
     d="M 102.19104,91.38506 C 95.710135,90.49141 90.402137,87.205269 86.84175,81.882433 84.257535,78.018992 83.171391,74.074604 83.356937,69.227161 l 0.108664,-2.838872 -0.721784,-0.298972 c -0.396982,-0.164436 -1.211136,-0.788325 -1.809232,-1.386422 -3.089087,-3.089087 -2.151832,-8.002268 1.874194,-9.824706 1.22592,-0.554931 3.074053,-0.671151 4.152489,-0.261131 1.058989,0.402627 1.147495,-0.01463 0.341879,-1.611769 -0.817406,-1.620516 -0.946705,-3.024269 -0.437355,-4.748192 0.406025,-1.37422 2.478588,-3.446784 3.852809,-3.85281 2.451994,-0.724464 5.012567,0.01352 6.63876,1.913361 0.487152,0.569128 0.959369,1.034778 1.04937,1.034778 0.09,0 0.163638,-0.373605 0.163638,-0.830235 0,-4.70654 4.890051,-7.788992 9.000751,-5.673632 1.87832,0.966581 3.24297,3.196619 3.25277,5.315494 0.007,1.436553 0.39704,1.543358 1.18638,0.324569 0.30548,-0.471686 1.09356,-1.173935 1.75128,-1.560553 1.02658,-0.603431 1.46427,-0.702942 3.09187,-0.702942 1.67378,0 2.03953,0.08874 3.12068,0.757166 3.08297,1.906049 3.79995,6.10778 1.56573,9.175647 -0.45026,0.61826 -0.13233,0.773376 0.96219,0.469454 3.93723,-1.093267 7.81914,1.692295 7.83622,5.623072 0.004,0.965907 -0.16181,1.527118 -0.70304,2.376747 -0.66896,1.050143 -2.01686,2.417128 -3.19895,3.244251 -0.49284,0.344852 -0.51363,0.484784 -0.2967,1.996543 0.51219,3.569427 -0.33106,7.949971 -2.28753,11.883244 -2.06988,4.161297 -5.1992,7.289237 -9.39497,9.390832 -1.37601,0.689222 -3.34621,1.462764 -4.37822,1.71898 -2.28669,0.567717 -5.85272,0.804614 -7.88779,0.523997 z"
     id="path4576"
     inkscape:connector-curvature="0" />
  <g
     inkscape:groupmode="layer"
     id="layer1"
     inkscape:label="Layer 1"
     style="display:inline">
    <rect
       id="rect3703"
       width="27.323175"
       height="31.440369"
       x="39.310699"
       y="70.790138"
       style="fill:#ededed;fill-opacity:1;stroke-width:1.4025557" />
    <path
       style="fill:#ededed;fill-opacity:1;stroke:none;stroke-width:1.58267462px;stroke-linecap:butt;stroke-linejoin:miter;stroke-opacity:1"
       d="M 50.339278,85.40755 77.194531,51.091686 77.113082,117.81543 Z"
       id="path3727"
       inkscape:connector-curvature="0"
       sodipodi:nodetypes="cccc" />
    <path
       style="opacity:0;fill:#000000;stroke-width:0.47025105"
       d="M 76.382079,113.46251 66.624364,101.57303 V 84.882838 68.192643 l 9.757715,-10.641715 9.757714,-10.641715 0.12274,19.607325 c 0.06748,10.784031 0.06748,28.433653 0,39.221382 l -0.12274,19.61406 z"
       id="path3729"
       inkscape:connector-curvature="0" />
    <path
       style="opacity:0;fill:#ededed;fill-opacity:1;stroke-width:0.47025105"
       d="m 77.110977,117.84763 -11.286034,-13.84178 -16.576341,-0.006 -16.576358,-0.006 V 84.478096 64.962678 l 17.046602,-0.02269 17.046603,-0.02271 10.933342,-11.988695 10.933324,-11.988695 v 45.399101 c 0,24.969571 -0.05282,45.388241 -0.117665,45.374821 -0.06466,-0.0134 -5.196269,-6.25321 -11.403586,-13.86619 z M 86.638551,65.939198 86.516,45.754531 76.539102,56.65174 l -9.976878,10.897208 -0.01692,17.298039 -0.01504,17.298043 9.992836,12.21681 9.992836,12.21681 0.122551,-20.22739 c 0.06748,-11.12507 0.06748,-29.310496 0,-40.412062 z"
       id="path4538"
       inkscape:connector-curvature="0" />
    <path
       style="opacity:0;fill:#ededed;fill-opacity:1;stroke-width:0.47025105"
       d="m 77.110977,117.84763 -11.286034,-13.84178 -16.576341,-0.006 -16.576358,-0.006 V 84.478096 64.962678 l 17.046602,-0.02269 17.046603,-0.02271 10.933342,-11.988695 10.933324,-11.988695 v 45.399101 c 0,24.969571 -0.05282,45.388241 -0.117665,45.374821 -0.06466,-0.0134 -5.196269,-6.25321 -11.403586,-13.86619 z M 86.638551,65.939198 86.516,45.754531 76.539102,56.65174 l -9.976878,10.897208 -0.01692,17.298039 -0.01504,17.298043 9.992836,12.21681 9.992836,12.21681 0.122551,-20.22739 c 0.06748,-11.12507 0.06748,-29.310496 0,-40.412062 z"
       id="path4540"
       inkscape:connector-curvature="0" />
    <path
       style="opacity:0;fill:#ededed;fill-opacity:1;stroke-width:0.47025105"
       d="M 76.523163,113.63822 67.00057,102.01566 V 84.902291 67.788921 l 9.706195,-10.595405 c 5.338405,-5.827475 9.729369,-10.536953 9.757695,-10.46551 0.02838,0.07144 -0.05432,17.770545 -0.183639,39.331338 L 86.0457,125.26079 Z"
       id="path4542"
       inkscape:connector-curvature="0" />
    <path
       style="opacity:0;fill:#ededed;fill-opacity:1;stroke-width:0.47025105"
       d="m 76.429107,113.60436 -9.757715,-11.95613 0.02331,-16.814517 0.02331,-16.814513 9.85194,-10.709253 9.85194,-10.709253 v 39.512129 c 0,21.731667 -0.05282,39.497627 -0.117664,39.479907 -0.06466,-0.0177 -4.508535,-5.41249 -9.875285,-11.98837 z"
       id="path4558"
       inkscape:connector-curvature="0" />
    <path
       style="opacity:0;fill:#ededed;fill-opacity:1;stroke-width:0.47025105"
       d="M 77.252043,117.9024 65.966027,104.0543 49.154546,104.0239 32.343068,103.9934 V 84.477985 64.962565 h 17.147103 17.147125 l 10.950391,-11.980928 10.95039,-11.980929 0.121988,22.832425 c 0.0671,12.557835 0.0671,32.976537 0,45.374897 l -0.121988,22.54246 z m 9.527573,-52.035581 -0.122551,-20.257045 -8.934779,9.77122 c -4.914119,5.374169 -9.51669,10.498291 -10.227958,11.386938 l -1.293179,1.615717 0.0038,16.511687 c 0.0038,14.921771 0.08195,16.628334 0.822936,17.723064 0.450902,0.66627 5.052102,6.35846 10.224857,12.64932 l 9.405022,11.43792 0.122551,-20.29088 c 0.06748,-11.159992 0.06748,-29.406566 0,-40.547941 z"
       id="path4562"
       inkscape:connector-curvature="0" />
    <path
       style="opacity:0;fill:#ededed;fill-opacity:1;stroke-width:0.47025105"
       d="m 76.429107,113.60436 -9.757715,-11.95613 0.02331,-16.814517 0.02331,-16.814513 9.85194,-10.709253 9.85194,-10.709253 v 39.512129 c 0,21.731667 -0.05282,39.497627 -0.117664,39.479907 -0.06466,-0.0177 -4.508535,-5.41249 -9.875285,-11.98837 z"
       id="path4564"
       inkscape:connector-curvature="0" />
    <path
       style="opacity:0;fill:#ededed;fill-opacity:1;stroke-width:0.47025105"
       d="M 77.252043,117.9024 65.966027,104.0543 49.154546,104.0239 32.343068,103.9934 V 84.477985 64.962565 h 17.147103 17.147125 l 10.950391,-11.980928 10.95039,-11.980929 0.121988,22.832425 c 0.0671,12.557835 0.0671,32.976537 0,45.374897 l -0.121988,22.54246 z m 9.527573,-52.035581 -0.122551,-20.257045 -8.934779,9.77122 c -4.914119,5.374169 -9.51669,10.498291 -10.227958,11.386938 l -1.293179,1.615717 0.0038,16.511687 c 0.0038,14.921771 0.08195,16.628334 0.822936,17.723064 0.450902,0.66627 5.052102,6.35846 10.224857,12.64932 l 9.405022,11.43792 0.122551,-20.29088 c 0.06748,-11.159992 0.06748,-29.406566 0,-40.547941 z"
       id="path4568"
       inkscape:connector-curvature="0" />
    <path
       style="opacity:0;fill:#ededed;fill-opacity:1;stroke-width:0.47025105"
       d="M 77.252043,117.9024 65.966027,104.0543 49.154546,104.0239 32.343068,103.9934 V 84.477985 64.962565 h 17.147103 17.147125 l 10.950391,-11.980928 10.95039,-11.980929 0.121988,22.832425 c 0.0671,12.557835 0.0671,32.976537 0,45.374897 l -0.121988,22.54246 z m 9.527573,-52.035581 -0.122551,-20.257045 -8.934779,9.77122 c -4.914119,5.374169 -9.51669,10.498291 -10.227958,11.386938 l -1.293179,1.615717 0.0038,16.511687 c 0.0038,14.921771 0.08195,16.628334 0.822936,17.723064 0.450902,0.66627 5.052102,6.35846 10.224857,12.64932 l 9.405022,11.43792 0.122551,-20.29088 c 0.06748,-11.159992 0.06748,-29.406566 0,-40.547941 z"
       id="path4570"
       inkscape:connector-curvature="0" />
    <path
       style="opacity:0;fill:#ededed;fill-opacity:1;stroke-width:0.47025105"
       d="m 76.429107,113.60436 -9.757715,-11.95613 0.02331,-16.814517 0.02331,-16.814513 9.85194,-10.709253 9.85194,-10.709253 v 39.512129 c 0,21.731667 -0.05282,39.497627 -0.117664,39.479907 -0.06466,-0.0177 -4.508535,-5.41249 -9.875285,-11.98837 z"
       id="path4572"
       inkscape:connector-curvature="0" />
    <path
       style="opacity:0;fill:#ededed;fill-opacity:1;stroke-width:0.47025105"
       d="M 77.252043,117.9024 65.966027,104.0543 49.154546,104.0239 32.343068,103.9934 V 84.477985 64.962565 h 17.147103 17.147125 l 10.950391,-11.980928 10.95039,-11.980929 0.121988,22.832425 c 0.0671,12.557835 0.0671,32.976537 0,45.374897 l -0.121988,22.54246 z m 9.527573,-52.035581 -0.122551,-20.257045 -8.934779,9.77122 c -4.914119,5.374169 -9.51669,10.498291 -10.227958,11.386938 l -1.293179,1.615717 0.0038,16.511687 c 0.0038,14.921771 0.08195,16.628334 0.822936,17.723064 0.450902,0.66627 5.052102,6.35846 10.224857,12.64932 l 9.405022,11.43792 0.122551,-20.29088 c 0.06748,-11.159992 0.06748,-29.406566 0,-40.547941 z"
       id="path4574"
       inkscape:connector-curvature="0" />
    <path
       style="opacity:0;fill:#ededed;fill-opacity:1;stroke-width:0.47025105"
       d="M 77.252043,117.9024 65.966027,104.0543 49.154546,104.0239 32.343068,103.9934 V 84.477985 64.962565 h 17.147103 17.147125 l 10.950391,-11.980928 10.95039,-11.980929 0.121988,22.832425 c 0.0671,12.557835 0.0671,32.976537 0,45.374897 l -0.121988,22.54246 z m 9.527573,-52.035581 -0.122551,-20.257045 -8.934779,9.77122 c -4.914119,5.374169 -9.51669,10.498291 -10.227958,11.386938 l -1.293179,1.615717 0.0038,16.511687 c 0.0038,14.921771 0.08195,16.628334 0.822936,17.723064 0.450902,0.66627 5.052102,6.35846 10.224857,12.64932 l 9.405022,11.43792 0.122551,-20.29088 c 0.06748,-11.159992 0.06748,-29.406566 0,-40.547941 z"
       id="path4578"
       inkscape:connector-curvature="0" />
    <path
       style="opacity:0;fill:#ededed;fill-opacity:1;stroke-width:0.47025105"
       d="M 77.252043,117.9024 65.966027,104.0543 49.154546,104.0239 32.343068,103.9934 V 84.477985 64.962565 h 17.147103 17.147125 l 10.950391,-11.980928 10.95039,-11.980929 0.121988,22.832425 c 0.0671,12.557835 0.0671,32.976537 0,45.374897 l -0.121988,22.54246 z m 9.527573,-52.035581 -0.122551,-20.257045 -8.934779,9.77122 c -4.914119,5.374169 -9.51669,10.498291 -10.227958,11.386938 l -1.293179,1.615717 0.0038,16.511687 c 0.0038,14.921771 0.08195,16.628334 0.822936,17.723064 0.450902,0.66627 5.052102,6.35846 10.224857,12.64932 l 9.405022,11.43792 0.122551,-20.29088 c 0.06748,-11.159992 0.06748,-29.406566 0,-40.547941 z"
       id="path4580"
       inkscape:connector-curvature="0" />
    <path
       style="opacity:0;fill:#ededed;fill-opacity:1;stroke-width:0.47025105"
       d="m 76.429107,113.60436 -9.757715,-11.95613 0.02331,-16.814517 0.02331,-16.814513 9.85194,-10.709253 9.85194,-10.709253 v 39.512129 c 0,21.731667 -0.05282,39.497627 -0.117664,39.479907 -0.06466,-0.0177 -4.508535,-5.41249 -9.875285,-11.98837 z"
       id="path4582"
       inkscape:connector-curvature="0" />
    <path
       style="opacity:0;fill:#ededed;fill-opacity:1;stroke-width:0.47025105"
       d="M 77.113082,117.81543 66.060123,104.32526 49.250705,104.20175 32.44129,104.07824 V 84.322824 64.567396 l 17.253432,0.03334 17.253435,0.03334 10.844068,-11.865295 10.844068,-11.865294 0.111499,24.186874 c 0.06133,13.30278 -0.04449,33.643263 -0.235125,45.201069 l -0.346635,21.01417 z m 9.87733,-31.857717 c 0,-26.341668 -0.160219,-40.1352 -0.463999,-39.94745 -0.255196,0.157719 -4.910683,5.144217 -10.345521,11.081101 l -9.881525,10.794334 0.01372,17.044154 0.01372,17.044148 9.947083,12.10897 c 5.470892,6.65993 10.120214,12.10896 10.331822,12.10896 0.21161,0 0.38474,-18.1054 0.38474,-40.234217 z"
       id="path4645"
       inkscape:connector-curvature="0" />
    <path
       style="opacity:0;fill:#ededed;fill-opacity:1;stroke-width:0.47025105"
       d="M 77.113082,117.81543 66.060123,104.32526 49.250705,104.20175 32.44129,104.07824 V 84.322824 64.567396 l 17.253432,0.03334 17.253435,0.03334 10.844068,-11.865295 10.844068,-11.865294 0.111499,24.186874 c 0.06133,13.30278 -0.04449,33.643263 -0.235125,45.201069 l -0.346635,21.01417 z m 9.87733,-31.857717 c 0,-26.341668 -0.160219,-40.1352 -0.463999,-39.94745 -0.255196,0.157719 -4.910683,5.144217 -10.345521,11.081101 l -9.881525,10.794334 0.01372,17.044154 0.01372,17.044148 9.947083,12.10897 c 5.470892,6.65993 10.120214,12.10896 10.331822,12.10896 0.21161,0 0.38474,-18.1054 0.38474,-40.234217 z"
       id="path4647"
       inkscape:connector-curvature="0" />
    <path
       style="opacity:0;fill:#ededed;fill-opacity:1;stroke-width:0.47025105"
       d="M 76.527327,113.6438 66.769618,101.73157 V 84.912302 68.093035 l 9.757709,-10.701004 9.75771,-10.701005 0.122664,19.764784 c 0.06748,10.87063 0.06748,28.615259 0,39.43251 l -0.122664,19.66772 z"
       id="path4649"
       inkscape:connector-curvature="0" />
    <path
       style="opacity:0;fill:#ededed;fill-opacity:1;stroke-width:0.2668629"
       d="M 0.02129193,89.070943 V 0.07216619 H 81.547907 163.07452 V 89.070943 178.06972 H 81.547907 0.02129193 Z M 116.20506,138.90759 c -0.45542,-1.87107 -2.7224,-7.49312 -4.39357,-10.89591 -6.35843,-12.94689 -15.343857,-21.52044 -25.726913,-24.54765 -3.245731,-0.9463 -8.530737,-1.18334 -11.958658,-0.53635 -13.392653,2.52772 -25.28218,15.17832 -31.683474,33.71157 l -1.036946,3.00221 H 78.894591 116.38368 Z M 84.735857,96.162998 C 95.313152,93.375463 102.53905,83.460818 101.8798,72.639797 l -0.16171,-2.654416 2.09594,-2.065754 c 2.45796,-2.422568 2.87763,-3.412216 2.39711,-5.652791 -0.62643,-2.92098 -3.3566,-5.08601 -6.413605,-5.08601 -0.844773,0 -1.831643,0.112422 -2.193042,0.249827 -0.955244,0.363182 -1.033186,0.08773 -0.292068,-1.032175 1.05651,-1.596497 1.35165,-3.576064 0.81006,-5.433246 -0.86126,-2.953372 -3.224219,-4.725784 -6.300356,-4.725784 -2.124832,0 -3.613113,0.676113 -5.028978,2.284618 -0.567625,0.644858 -1.109376,1.095139 -1.203888,1.000624 -0.09452,-0.09451 -0.17448,-0.722246 -0.177704,-1.394964 -0.02132,-4.448818 -5.067203,-7.478283 -9.20091,-5.524073 -2.348801,1.110398 -3.852304,3.38119 -3.863651,5.835414 -0.0032,0.697179 -0.125949,1.267598 -0.272723,1.267598 -0.146775,0 -0.266863,-0.10596 -0.266863,-0.235466 0,-0.519353 -2.237243,-2.428103 -3.339274,-2.848972 -1.78776,-0.682753 -4.262028,-0.444866 -5.898917,0.567145 -3.00688,1.859009 -4.014074,6.214633 -2.092015,9.046943 0.771957,1.137543 0.662641,1.567131 -0.30515,1.199178 -1.099734,-0.418119 -3.609206,-0.290646 -4.776713,0.242637 -1.396976,0.638101 -3.220944,2.646356 -3.580902,3.942709 -0.458809,1.652349 -0.339161,3.310686 0.344843,4.779598 0.655015,1.406653 2.51368,3.22994 3.560434,3.492659 0.509409,0.127854 0.574099,0.263983 0.407452,0.857438 -0.108955,0.388003 -0.179823,2.026429 -0.157484,3.640949 0.155175,11.215047 8.558296,20.630963 19.974101,22.381506 1.801156,0.276198 6.721395,-0.06629 8.79207,-0.611991 z M 47.081126,31.22841 c 0.09129,-14.347217 0.07792,-26.0830934 -0.02971,-26.0797256 -0.107629,0.00337 -3.017764,3.1173462 -6.466966,6.9199526 l -6.271279,6.913829 -9.807211,0.01848 -9.807212,0.01848 v 11.208242 11.208241 h 9.435662 9.435663 l 2.257601,2.735345 c 1.241681,1.50444 4.213165,5.114871 6.603296,8.02318 2.390134,2.908309 4.376853,5.250031 4.414934,5.203826 0.03808,-0.0462 0.14393,-11.82264 0.235219,-26.169856 z"
       id="path4651"
       inkscape:connector-curvature="0"
       transform="scale(0.93750001)" />
    <path
       style="fill:none;stroke:#ededed;stroke-width:6.375;stroke-linecap:butt;stroke-linejoin:miter;stroke-miterlimit:4;stroke-dasharray:none;stroke-opacity:1"
       d="m 79.399917,70.273858 c 8.300074,5.924871 10.260594,18.114406 0.530721,26.605932"
       id="path4657"
       inkscape:connector-curvature="0"
       sodipodi:nodetypes="cc" />
    <path
       style="display:inline;fill:none;stroke:#ededed;stroke-width:6.84375;stroke-linecap:butt;stroke-linejoin:miter;stroke-miterlimit:4;stroke-dasharray:none;stroke-opacity:1"
       d="m 86.566416,62.383996 c 15.593604,9.427695 15.624624,30.876064 0.530721,43.765894"
       id="path4657-3"
       inkscape:connector-curvature="0"
       sodipodi:nodetypes="cc" />
    <path
       style="display:inline;fill:none;stroke:#ededed;stroke-width:6.84375;stroke-linecap:butt;stroke-linejoin:miter;stroke-miterlimit:4;stroke-dasharray:none;stroke-opacity:1"
       d="m 96.298412,53.273294 c 28.411608,25.156241 9.691388,55.690546 0.530721,62.341096"
       id="path4657-3-6"
       inkscape:connector-curvature="0"
       sodipodi:nodetypes="cc" />
  </g>
</svg>
