<?xml version="1.0" encoding="UTF-8" standalone="no"?>
<svg
   xmlns:dc="http://purl.org/dc/elements/1.1/"
   xmlns:cc="http://creativecommons.org/ns#"
   xmlns:rdf="http://www.w3.org/1999/02/22-rdf-syntax-ns#"
   xmlns:svg="http://www.w3.org/2000/svg"
   xmlns="http://www.w3.org/2000/svg"
   xmlns:sodipodi="http://sodipodi.sourceforge.net/DTD/sodipodi-0.dtd"
   xmlns:inkscape="http://www.inkscape.org/namespaces/inkscape"
   width="185"
   height="188"
   version="1.1"
   id="svg46"
   sodipodi:docname="logos.svg"
   inkscape:version="0.92.2 (unknown)">
  <metadata
     id="metadata50">
    <rdf:RDF>
      <cc:Work
         rdf:about="">
        <dc:format>image/svg+xml</dc:format>
        <dc:type
           rdf:resource="http://purl.org/dc/dcmitype/StillImage" />
      </cc:Work>
    </rdf:RDF>
  </metadata>
  <sodipodi:namedview
     pagecolor="#ffffff"
     bordercolor="#666666"
     borderopacity="1"
     objecttolerance="10"
     gridtolerance="10"
     guidetolerance="10"
     inkscape:pageopacity="0"
     inkscape:pageshadow="2"
     inkscape:window-width="1920"
     inkscape:window-height="1056"
     id="namedview48"
     showgrid="false"
     inkscape:zoom="5.0212766"
     inkscape:cx="122.3625"
     inkscape:cy="64.9238"
     inkscape:window-x="1360"
     inkscape:window-y="24"
     inkscape:window-maximized="1"
     inkscape:current-layer="svg46" />
  <defs
     id="defs20">
    <filter
       id="f"
       color-interpolation-filters="sRGB">
      <feColorMatrix
         values="4.01604 8.29 0.072 -0.1 0 4.01604 8.29 0.072 -0.1 0 4.01604 8.29 0.072 -0.1 0 0 0 0 1 0"
         id="feColorMatrix2" />
    </filter>
    <filter
       id="e"
       color-interpolation-filters="sRGB">
      <feColorMatrix
         values="-0.90508 5.29 0.072 -0.1 0 -0.90508 5.29 0.072 -0.1 0 -0.90508 5.29 0.072 -0.1 0 0 0 0 1 0"
         id="feColorMatrix5" />
    </filter>
    <filter
       id="b"
       color-interpolation-filters="sRGB">
      <feColorMatrix
         values="4.01604 8.29 0.072 -0.1 0 4.01604 8.29 0.072 -0.1 0 4.01604 8.29 0.072 -0.1 0 0 0 0 1 0"
         id="feColorMatrix8" />
    </filter>
    <filter
       id="a"
       color-interpolation-filters="sRGB">
      <feColorMatrix
         values="-0.90508 5.29 0.072 -0.1 0 -0.90508 5.29 0.072 -0.1 0 -0.90508 5.29 0.072 -0.1 0 0 0 0 1 0"
         id="feColorMatrix11" />
    </filter>
    <filter
       id="d"
       color-interpolation-filters="sRGB">
      <feColorMatrix
         values="4.01604 8.29 0.072 -0.1 0 4.01604 8.29 0.072 -0.1 0 4.01604 8.29 0.072 -0.1 0 0 0 0 1 0"
         id="feColorMatrix14" />
    </filter>
    <filter
       id="c"
       color-interpolation-filters="sRGB">
      <feColorMatrix
         values="-0.90508 5.29 0.072 -0.1 0 -0.90508 5.29 0.072 -0.1 0 -0.90508 5.29 0.072 -0.1 0 0 0 0 1 0"
         id="feColorMatrix17" />
    </filter>
    <filter
       style="color-interpolation-filters:sRGB"
       id="b-7">
      <feColorMatrix
         values="4.01604 8.29 0.072 -0.1 0 4.01604 8.29 0.072 -0.1 0 4.01604 8.29 0.072 -0.1 0 0 0 0 1 0"
         id="feColorMatrix8-5" />
    </filter>
  </defs>
  <path
     inkscape:connector-curvature="0"
     style="fill:#5c5c5c;fill-opacity:1"
     d="m 77.605,85.725 c -0.243,-0.179 -0.304,-0.763 -0.253,-2.421 0.064,-2.093 0.092,-2.198 0.662,-2.47 0.632,-0.303 0.647,-0.347 2.661,-7.913 1.482,-5.564 2.578,-9.273 2.81,-9.505 0.275,-0.275 10.425,-0.293 10.686,-0.019 0.141,0.148 2.058,6.901 3.359,11.831 0.591,2.243 1.433,5.069 1.58,5.307 0.079,0.128 0.29,0.232 0.468,0.232 0.178,0 0.416,0.181 0.529,0.404 0.191,0.377 0.186,4.375 -0.006,4.567 -0.22,0.22 -11.049,0.178 -11.27,-0.044 -0.14,-0.14 -0.21,-1.17 -0.171,-2.523 l 0.066,-2.285 0.693,-0.126 c 0.57,-0.104 0.681,-0.225 0.631,-0.694 -0.116,-1.1 -0.195,-1.145 -1.984,-1.145 -1.83,0 -1.993,0.106 -1.993,1.288 0,0.439 0.12,0.558 0.568,0.558 0.326,0 0.671,0.19 0.808,0.446 0.276,0.515 0.319,3.917 0.055,4.332 -0.23,0.363 -9.422,0.529 -9.9,0.18 z M 88.943,75.251 c 0.142,-0.23 -0.508,-3.637 -0.794,-4.16 -0.118,-0.217 -0.276,0.144 -0.456,1.038 -0.152,0.753 -0.359,1.753 -0.46,2.223 -0.1,0.47 -0.126,0.91 -0.057,0.98 0.209,0.209 1.628,0.144 1.767,-0.081 z m 29.096,10.667 c -0.759,-0.055 -1.458,-0.225 -1.554,-0.376 -0.263,-0.413 -0.218,-3.816 0.056,-4.329 0.132,-0.245 0.394,-0.446 0.582,-0.446 0.472,0 0.586,-0.327 2.192,-6.231 2.655,-9.762 2.993,-10.944 3.177,-11.128 0.255,-0.255 10.426,-0.272 10.68,-0.018 0.113,0.113 0.863,2.661 1.257,4.003 1.183,4.03 2.973,10.815 3.324,12.153 0.18,0.691 0.435,1.057 0.882,1.271 0.608,0.29 0.63,0.37 0.687,2.375 0.033,1.141 -0.037,2.223 -0.155,2.405 -0.177,0.274 -1.152,0.323 -5.682,0.285 -3.007,-0.025 -5.56,-0.102 -5.672,-0.17 -0.316,-0.196 -0.25,-4.344 0.074,-4.668 0.152,-0.153 0.516,-0.277 0.808,-0.277 0.58,0 0.659,-0.325 0.305,-1.255 -0.212,-0.557 -0.319,-0.591 -1.838,-0.591 -1.358,0 -1.65,0.07 -1.851,0.446 -0.423,0.79 -0.296,1.4 0.291,1.4 0.292,0 0.656,0.124 0.808,0.277 0.314,0.314 0.395,4.469 0.09,4.657 -0.27,0.167 -6.836,0.335 -8.461,0.217 z m 10.034,-10.747 c 0.002,-0.646 -0.8,-4.096 -0.953,-4.096 -0.172,0 -0.59,1.734 -0.822,3.403 l -0.135,0.981 h 0.954 c 0.61,0 0.955,-0.104 0.956,-0.288 z M 55.33,85.555 c -0.177,-0.517 -0.014,-4.356 0.194,-4.553 0.11,-0.105 0.41,-0.228 0.663,-0.274 0.448,-0.08 0.462,-0.265 0.462,-6.185 v -6.101 l -0.57,-0.135 c -0.667,-0.157 -0.926,-1.027 -0.894,-3.002 0.037,-2.29 -0.719,-2.077 7.343,-2.077 6.324,0 7.274,0.049 8.515,0.435 2.875,0.895 4.61,2.392 5.881,5.075 0.692,1.46 0.728,1.68 0.801,4.875 0.057,2.483 -0.018,3.757 -0.293,4.94 -0.864,3.717 -3.07,5.987 -6.748,6.945 -1.776,0.463 -15.198,0.513 -15.354,0.057 z m 12.46,-5.148 c 0.505,-0.354 0.512,-0.439 0.512,-5.808 0,-6.31 0.005,-6.294 -1.881,-6.294 h -1.119 l -0.024,3.866 c -0.013,2.126 -0.055,4.644 -0.094,5.596 -0.039,0.952 -0.015,2.016 0.053,2.365 0.11,0.57 0.22,0.635 1.081,0.635 0.527,0 1.19,-0.162 1.472,-0.36 z m 34.254,2.96 0.065,-2.485 0.866,-0.072 0.865,-0.071 V 68.275 l -0.634,0.073 c -0.541,0.062 -0.645,0.192 -0.706,0.88 -0.1,1.153 -0.544,1.385 -2.642,1.385 -2.796,0 -2.71,0.12 -2.71,-3.802 0,-1.944 0.095,-3.383 0.228,-3.466 0.126,-0.077 5.026,-0.136 10.889,-0.131 8.314,0.008 10.7,0.074 10.845,0.3 0.101,0.16 0.186,1.66 0.188,3.333 0.004,3.81 0.037,3.766 -2.766,3.766 -2.337,0 -2.769,-0.237 -2.769,-1.516 0,-0.727 -0.057,-0.792 -0.696,-0.792 h -0.696 l 0.061,6.173 0.062,6.173 0.733,0.071 c 1.114,0.108 1.254,0.445 1.18,2.848 l -0.067,2.158 -6.18,0.062 -6.182,0.061 z"
     id="path30-6" />
  <path
     inkscape:connector-curvature="0"
     style="fill:#f12403"
     d="m 77.605,22.472 c -0.243,-0.179 -0.304,-0.763 -0.253,-2.421 0.064,-2.093 0.092,-2.198 0.662,-2.47 0.632,-0.303 0.647,-0.347 2.661,-7.913 1.482,-5.564 2.578,-9.273 2.81,-9.505 0.275,-0.275 10.425,-0.293 10.686,-0.019 0.141,0.148 2.058,6.901 3.359,11.831 0.591,2.243 1.433,5.069 1.58,5.307 0.079,0.128 0.29,0.232 0.468,0.232 0.178,0 0.416,0.181 0.529,0.404 0.191,0.377 0.186,4.375 -0.006,4.567 -0.22,0.22 -11.049,0.178 -11.27,-0.044 -0.14,-0.14 -0.21,-1.17 -0.171,-2.523 l 0.066,-2.285 0.693,-0.126 c 0.57,-0.104 0.681,-0.225 0.631,-0.694 -0.116,-1.1 -0.195,-1.145 -1.984,-1.145 -1.83,0 -1.993,0.106 -1.993,1.288 0,0.439 0.12,0.558 0.568,0.558 0.326,0 0.671,0.19 0.808,0.446 0.276,0.515 0.319,3.917 0.055,4.332 -0.23,0.363 -9.422,0.529 -9.9,0.18 z M 88.943,11.998 c 0.142,-0.23 -0.508,-3.637 -0.794,-4.16 -0.118,-0.217 -0.276,0.144 -0.456,1.038 -0.152,0.753 -0.359,1.753 -0.46,2.223 -0.1,0.47 -0.126,0.91 -0.057,0.98 0.209,0.209 1.628,0.144 1.767,-0.081 z m 29.096,10.667 c -0.759,-0.055 -1.458,-0.225 -1.554,-0.376 -0.263,-0.413 -0.218,-3.816 0.056,-4.329 0.132,-0.245 0.394,-0.446 0.582,-0.446 0.472,0 0.586,-0.327 2.192,-6.231 2.655,-9.762 2.993,-10.944 3.177,-11.128 0.255,-0.255 10.426,-0.272 10.68,-0.018 0.113,0.113 0.863,2.661 1.257,4.003 1.183,4.03 2.973,10.815 3.324,12.153 0.18,0.691 0.435,1.057 0.882,1.271 0.608,0.29 0.63,0.37 0.687,2.375 0.033,1.141 -0.037,2.223 -0.155,2.405 -0.177,0.274 -1.152,0.323 -5.682,0.285 -3.007,-0.025 -5.56,-0.102 -5.672,-0.17 -0.316,-0.196 -0.25,-4.344 0.074,-4.668 0.152,-0.153 0.516,-0.277 0.808,-0.277 0.58,0 0.659,-0.325 0.305,-1.255 -0.212,-0.557 -0.319,-0.591 -1.83799,-0.591 -1.358,0 -1.65,0.07 -1.851,0.446 -0.423,0.79 -0.296,1.4 0.291,1.4 0.292,0 0.656,0.124 0.808,0.277 0.314,0.314 0.395,4.469 0.09,4.657 -0.27,0.167 -6.836,0.335 -8.46101,0.217 z m 10.034,-10.747 c 0.002,-0.646 -0.8,-4.096 -0.953,-4.096 -0.172,0 -0.59,1.734 -0.822,3.403 l -0.135,0.981 h 0.954 c 0.61,0 0.955,-0.104 0.956,-0.288 z M 55.33,22.302 c -0.177,-0.517 -0.014,-4.356 0.194,-4.553 0.11,-0.105 0.41,-0.228 0.663,-0.274 0.448,-0.08 0.462,-0.265 0.462,-6.185 V 5.189 L 56.079,5.054 C 55.412,4.897 55.153,4.027 55.185,2.052 c 0.037,-2.29 -0.719,-2.077 7.343,-2.077 6.324,0 7.274,0.049 8.515,0.435 2.875,0.895 4.61,2.392 5.881,5.075 0.692,1.46 0.728,1.68 0.801,4.875 0.057,2.483 -0.018,3.757 -0.293,4.94 -0.864,3.717 -3.07,5.987 -6.748,6.945 -1.776,0.463 -15.198,0.513 -15.354,0.057 z m 12.46,-5.148 c 0.505,-0.354 0.512,-0.439 0.512,-5.808 0,-6.31 0.005,-6.294 -1.881,-6.294 h -1.119 l -0.024,3.866 c -0.013,2.126 -0.055,4.644 -0.094,5.596 -0.039,0.952 -0.015,2.016 0.053,2.365 0.11,0.57 0.22,0.635 1.081,0.635 0.527,0 1.19,-0.162 1.472,-0.36 z m 34.254,2.96 0.065,-2.485 0.866,-0.072 0.865,-0.071 V 5.022 l -0.634,0.073 c -0.541,0.062 -0.645,0.192 -0.706,0.88 -0.1,1.153 -0.544,1.385 -2.642,1.385 -2.796,0 -2.71,0.12 -2.71,-3.802 0,-1.944 0.095,-3.383 0.228,-3.466 0.126,-0.077 5.026,-0.136 10.889,-0.131 8.314,0.008 10.7,0.074 10.845,0.3 0.101,0.16 0.186,1.66 0.188,3.333 0.004,3.81 0.037,3.766 -2.766,3.766 -2.337,0 -2.769,-0.237 -2.769,-1.516 0,-0.727 -0.057,-0.792 -0.696,-0.792 h -0.696 l 0.061,6.173 0.062,6.173 0.733,0.071 c 1.114,0.108 1.254,0.445 1.18,2.848 l -0.067,2.158 -6.18001,0.062 -6.182,0.061 z"
     id="path30-3" />
  <path
     style="isolation:auto;mix-blend-mode:normal"
     color="#000"
     overflow="visible"
     fill="#2b0000"
     fill-opacity=".949"
     enable-background="accumulate"
     d="M36.239-13.172h.177v.884h-.177z"
     id="path22" />
  <path
     d="M372.817 471.742c0-1.893.45-3.72 1-4.06 1.368-.845 1.298-20.801-.078-22.177-.593-.593-.93-2.37-.75-3.95l.328-2.872 8.743-.289c4.81-.159 9.554.145 10.544.675.99.53 2.6 3.5 3.577 6.599.98 3.11 2.277 5.468 2.894 5.262.614-.205 1.97-2.932 3.014-6.062 2.205-6.616 2.844-6.92 13.635-6.484 8.912.36 10.688 1.922 7.843 6.9-2.364 4.135-2.487 19.402-.182 22.692.862 1.23 1.424 3.243 1.25 4.472-.3 2.113-.782 2.235-8.818 2.235s-8.517-.122-8.817-2.235c-.175-1.229.387-3.241 1.25-4.472 1.677-2.395 2.105-10.396.677-12.65-1.094-1.726-1.28-1.368-4.61 8.857-3.216 9.88-3.935 11-7.063 11-2.852 0-3.133-.445-6.923-11-1.68-4.675-3.494-8.5-4.034-8.5-1.718 0-1.704 9.165.019 12.498.882 1.706 1.326 3.98.985 5.052-.535 1.686-1.556 1.95-7.551 1.95h-6.933zm54.706 2.814c-1.176-1.177-.793-5.307.711-7.658.78-1.218 2.873-7.615 4.652-14.215 1.778-6.6 3.67-12.563 4.205-13.25 1.382-1.779 14.162-1.671 15.967.134.761.761 2.852 6.902 4.645 13.647 1.793 6.744 3.937 13.295 4.764 14.558.828 1.262 1.357 3.334 1.177 4.603-.312 2.204-.71 2.308-8.827 2.308-8.21 0-8.511-.082-8.839-2.4-.186-1.319.243-3.486.954-4.814 1.083-2.024 1.056-2.566-.161-3.336-2.164-1.369-4.55-1.142-5.97.569-1.03 1.24-.945 1.866.458 3.417.946 1.044 1.57 2.949 1.388 4.231-.305 2.159-.856 2.355-7.374 2.623-3.874.159-7.361-.029-7.75-.417zm17.794-19.373c0-1.833-.521-3.507-1.159-3.72-1.326-.442-2.829 5.121-1.823 6.748 1.262 2.043 2.982.297 2.982-3.028zm21.25 19.425c-1.23-1.244-.853-4.906.718-6.984 2.107-2.785 2.132-19.699.032-21.441-1.994-1.655-1.94-6.618.082-7.393 2.491-.956 15.608-.709 21.48.405 8.908 1.689 12.956 7.238 12.916 17.706-.028 7.515-2.747 13.574-7.15 15.932-2.512 1.346-6.27 1.875-15.328 2.158-6.6.207-12.337.034-12.75-.383zm19.316-7.46c1.69-.905 1.934-2.16 1.934-9.929 0-6.751-.378-9.272-1.571-10.465-1.886-1.886-2.647-1.953-4.229-.371-1.628 1.628-1.628 18.972 0 20.6 1.455 1.455 1.455 1.455 3.866.165z"
     transform="matrix(.6487 0 0 .6487 -186.396 -202.302)"
     fill="#fff"
     filter="url(#a)"
     id="path26"
     style="fill:#0f0f0f;fill-opacity:1" />
  <path
     d="M616.172 473.664c-.997-2.597.366-9.629 2.404-12.395 1.047-1.422 4.23-4.337 7.073-6.477 6.237-4.695 6.894-7.61 1.715-7.61-1.899 0-4.6.524-6.004 1.163-3.138 1.43-3.574 1.027-4.237-3.917l-.526-3.92 5.926-1.663c7.373-2.068 9.226-2.073 14.312-.038 6.107 2.443 8.645 8.756 5.672 14.105-.68 1.227-3.894 4.377-7.14 7-3.245 2.624-6.084 5.333-6.309 6.02-.7 2.147 2.724 2.585 6.078.778 1.765-.95 4.328-1.57 5.695-1.378 2.228.314 2.486.818 2.486 4.85v4.5l-13.27.28c-11.33.238-13.359.049-13.875-1.298zm37.944-.44c-4.973-3.033-6.71-7.286-6.752-16.541-.029-6.242.402-8.745 1.958-11.387 5.629-9.556 22.362-9.556 27.99 0 1.556 2.642 1.987 5.145 1.958 11.387-.061 13.281-4.556 18.492-15.953 18.492-4.19 0-6.965-.588-9.201-1.952zm11.501-6.241c.76-.76 1.2-4.573 1.2-10.378 0-10.185-1.098-12.51-4.936-10.456-1.857.994-2.064 2.032-2.064 10.369 0 8.995.801 11.665 3.5 11.665.605 0 1.64-.54 2.3-1.2zm18.902 7.568c-.386-.386-.702-1.924-.702-3.418 0-1.891.618-2.879 2.035-3.249 1.91-.5 2.017-1.19 1.75-11.323-.277-10.497-.351-10.807-2.71-11.362-1.335-.314-2.587-1.054-2.784-1.644-.728-2.184 2.986-3.69 10.245-4.156l7.464-.48v14.097c0 13.21.13 14.166 2.06 15.199 1.451.777 1.968 1.895 1.75 3.785-.308 2.666-.368 2.685-9.358 2.968-4.977.156-9.365-.031-9.75-.417zm28.651-.89c-.91-2.375 1.268-8.953 5.731-17.305 2.154-4.03 3.916-7.742 3.916-8.25s-1.392-.923-3.093-.923c-2.279 0-3.235.54-3.63 2.051-.45 1.718-1.207 2.002-4.657 1.75l-4.12-.301-.3-5.75-.3-5.75h29.1v2.713c0 1.492-1.78 6.329-3.956 10.75-2.177 4.42-4.808 11.187-5.848 15.037l-1.892 7-5.163.303c-4.035.236-5.3-.053-5.788-1.326z"
     transform="matrix(.70389 0 0 .70389 -378.385 -211.838)"
     id="path28"
     style="fill:#0d0d0d;fill-opacity:1"
     filter="url(#b)"
     fill="#0b1414" />
  <path
     d="M77.605 148.17c-.243-.179-.304-.763-.253-2.421.064-2.093.092-2.198.662-2.47.632-.303.647-.347 2.661-7.913 1.482-5.564 2.578-9.273 2.81-9.505.275-.275 10.425-.293 10.686-.019.141.148 2.058 6.901 3.359 11.831.591 2.243 1.433 5.069 1.58 5.307.079.128.29.232.468.232.178 0 .416.181.529.404.191.377.186 4.375-.006 4.567-.22.22-11.049.178-11.27-.044-.14-.14-.21-1.17-.171-2.523l.066-2.285.693-.126c.57-.104.681-.225.631-.694-.116-1.1-.195-1.145-1.984-1.145-1.83 0-1.993.106-1.993 1.288 0 .439.12.558.568.558.326 0 .671.19.808.446.276.515.319 3.917.055 4.332-.23.363-9.422.529-9.9.18zm11.338-10.474c.142-.23-.508-3.637-.794-4.16-.118-.217-.276.144-.456 1.038-.152.753-.359 1.753-.46 2.223-.1.47-.126.91-.057.98.209.209 1.628.144 1.767-.081zm29.096 10.667c-.759-.055-1.458-.225-1.554-.376-.263-.413-.218-3.816.056-4.329.132-.245.394-.446.582-.446.472 0 .586-.327 2.192-6.231 2.655-9.762 2.993-10.944 3.177-11.128.255-.255 10.426-.272 10.68-.018.113.113.863 2.661 1.257 4.003 1.183 4.03 2.973 10.815 3.324 12.153.18.691.435 1.057.882 1.271.608.29.63.37.687 2.375.033 1.141-.037 2.223-.155 2.405-.177.274-1.152.323-5.682.285-3.007-.025-5.56-.102-5.672-.17-.316-.196-.25-4.344.074-4.668.152-.153.516-.277.808-.277.58 0 .659-.325.305-1.255-.212-.557-.319-.591-1.838-.591-1.358 0-1.65.07-1.851.446-.423.79-.296 1.4.291 1.4.292 0 .656.124.808.277.314.314.395 4.469.09 4.657-.27.167-6.836.335-8.461.217zm10.034-10.747c.002-.646-.8-4.096-.953-4.096-.172 0-.59 1.734-.822 3.403l-.135.981h.954c.61 0 .955-.104.956-.288zM55.33 148c-.177-.517-.014-4.356.194-4.553.11-.105.41-.228.663-.274.448-.08.462-.265.462-6.185v-6.101l-.57-.135c-.667-.157-.926-1.027-.894-3.002.037-2.29-.719-2.077 7.343-2.077 6.324 0 7.274.049 8.515.435 2.875.895 4.61 2.392 5.881 5.075.692 1.46.728 1.68.801 4.875.057 2.483-.018 3.757-.293 4.94-.864 3.717-3.07 5.987-6.748 6.945-1.776.463-15.198.513-15.354.057zm12.46-5.148c.505-.354.512-.439.512-5.808 0-6.31.005-6.294-1.881-6.294h-1.119l-.024 3.866c-.013 2.126-.055 4.644-.094 5.596s-.015 2.016.053 2.365c.11.57.22.635 1.081.635.527 0 1.19-.162 1.472-.36zm34.254 2.96l.065-2.485.866-.072.865-.071V130.72l-.634.073c-.541.062-.645.192-.706.88-.1 1.153-.544 1.385-2.642 1.385-2.796 0-2.71.12-2.71-3.802 0-1.944.095-3.383.228-3.466.126-.077 5.026-.136 10.889-.131 8.314.008 10.7.074 10.845.3.101.16.186 1.66.188 3.333.004 3.81.037 3.766-2.766 3.766-2.337 0-2.769-.237-2.769-1.516 0-.727-.057-.792-.696-.792h-.696l.061 6.173.062 6.173.733.071c1.114.108 1.254.445 1.18 2.848l-.067 2.158-6.18.062-6.182.061z"
     fill="#f12403"
     id="path30"
     style="fill:#a2a2a2;fill-opacity:1" />
  <path
     d="M372.817 471.742c0-1.893.45-3.72 1-4.06 1.368-.845 1.298-20.801-.078-22.177-.593-.593-.93-2.37-.75-3.95l.328-2.872 8.743-.289c4.81-.159 9.554.145 10.544.675.99.53 2.6 3.5 3.577 6.599.98 3.11 2.277 5.468 2.894 5.262.614-.205 1.97-2.932 3.014-6.062 2.205-6.616 2.844-6.92 13.635-6.484 8.912.36 10.688 1.922 7.843 6.9-2.364 4.135-2.487 19.402-.182 22.692.862 1.23 1.424 3.243 1.25 4.472-.3 2.113-.782 2.235-8.818 2.235s-8.517-.122-8.817-2.235c-.175-1.229.387-3.241 1.25-4.472 1.677-2.395 2.105-10.396.677-12.65-1.094-1.726-1.28-1.368-4.61 8.857-3.216 9.88-3.935 11-7.063 11-2.852 0-3.133-.445-6.923-11-1.68-4.675-3.494-8.5-4.034-8.5-1.718 0-1.704 9.165.019 12.498.882 1.706 1.326 3.98.985 5.052-.535 1.686-1.556 1.95-7.551 1.95h-6.933zm54.706 2.814c-1.176-1.177-.793-5.307.711-7.658.78-1.218 2.873-7.615 4.652-14.215 1.778-6.6 3.67-12.563 4.205-13.25 1.382-1.779 14.162-1.671 15.967.134.761.761 2.852 6.902 4.645 13.647 1.793 6.744 3.937 13.295 4.764 14.558.828 1.262 1.357 3.334 1.177 4.603-.312 2.204-.71 2.308-8.827 2.308-8.21 0-8.511-.082-8.839-2.4-.186-1.319.243-3.486.954-4.814 1.083-2.024 1.056-2.566-.161-3.336-2.164-1.369-4.55-1.142-5.97.569-1.03 1.24-.945 1.866.458 3.417.946 1.044 1.57 2.949 1.388 4.231-.305 2.159-.856 2.355-7.374 2.623-3.874.159-7.361-.029-7.75-.417zm17.794-19.373c0-1.833-.521-3.507-1.159-3.72-1.326-.442-2.829 5.121-1.823 6.748 1.262 2.043 2.982.297 2.982-3.028zm21.25 19.425c-1.23-1.244-.853-4.906.718-6.984 2.107-2.785 2.132-19.699.032-21.441-1.994-1.655-1.94-6.618.082-7.393 2.491-.956 15.608-.709 21.48.405 8.908 1.689 12.956 7.238 12.916 17.706-.028 7.515-2.747 13.574-7.15 15.932-2.512 1.346-6.27 1.875-15.328 2.158-6.6.207-12.337.034-12.75-.383zm19.316-7.46c1.69-.905 1.934-2.16 1.934-9.929 0-6.751-.378-9.272-1.571-10.465-1.886-1.886-2.647-1.953-4.229-.371-1.628 1.628-1.628 18.972 0 20.6 1.455 1.455 1.455 1.455 3.866.165z"
     transform="matrix(.6487 0 0 .6487 -186.396 -139.857)"
     fill="#fff"
     filter="url(#c)"
     id="path32"
     style="fill:#ffffff;fill-opacity:1" />
  <path
     d="M616.172 473.664c-.997-2.597.366-9.629 2.404-12.395 1.047-1.422 4.23-4.337 7.073-6.477 6.237-4.695 6.894-7.61 1.715-7.61-1.899 0-4.6.524-6.004 1.163-3.138 1.43-3.574 1.027-4.237-3.917l-.526-3.92 5.926-1.663c7.373-2.068 9.226-2.073 14.312-.038 6.107 2.443 8.645 8.756 5.672 14.105-.68 1.227-3.894 4.377-7.14 7-3.245 2.624-6.084 5.333-6.309 6.02-.7 2.147 2.724 2.585 6.078.778 1.765-.95 4.328-1.57 5.695-1.378 2.228.314 2.486.818 2.486 4.85v4.5l-13.27.28c-11.33.238-13.359.049-13.875-1.298zm37.944-.44c-4.973-3.033-6.71-7.286-6.752-16.541-.029-6.242.402-8.745 1.958-11.387 5.629-9.556 22.362-9.556 27.99 0 1.556 2.642 1.987 5.145 1.958 11.387-.061 13.281-4.556 18.492-15.953 18.492-4.19 0-6.965-.588-9.201-1.952zm11.501-6.241c.76-.76 1.2-4.573 1.2-10.378 0-10.185-1.098-12.51-4.936-10.456-1.857.994-2.064 2.032-2.064 10.369 0 8.995.801 11.665 3.5 11.665.605 0 1.64-.54 2.3-1.2zm18.902 7.568c-.386-.386-.702-1.924-.702-3.418 0-1.891.618-2.879 2.035-3.249 1.91-.5 2.017-1.19 1.75-11.323-.277-10.497-.351-10.807-2.71-11.362-1.335-.314-2.587-1.054-2.784-1.644-.728-2.184 2.986-3.69 10.245-4.156l7.464-.48v14.097c0 13.21.13 14.166 2.06 15.199 1.451.777 1.968 1.895 1.75 3.785-.308 2.666-.368 2.685-9.358 2.968-4.977.156-9.365-.031-9.75-.417zm28.651-.89c-.91-2.375 1.268-8.953 5.731-17.305 2.154-4.03 3.916-7.742 3.916-8.25s-1.392-.923-3.093-.923c-2.279 0-3.235.54-3.63 2.051-.45 1.718-1.207 2.002-4.657 1.75l-4.12-.301-.3-5.75-.3-5.75h29.1v2.713c0 1.492-1.78 6.329-3.956 10.75-2.177 4.42-4.808 11.187-5.848 15.037l-1.892 7-5.163.303c-4.035.236-5.3-.053-5.788-1.326z"
     transform="matrix(.70389 0 0 .70389 -378.385 -149.393)"
     fill="#0b1414"
     filter="url(#d)"
     id="path34"
     style="fill:#0f0f0f;fill-opacity:1" />
  <g
     id="g38"
     style="fill:#0a1212;fill-opacity:1">
    <path
       d="M372.817 471.742c0-1.893.45-3.72 1-4.06 1.368-.845 1.298-20.801-.078-22.177-.593-.593-.93-2.37-.75-3.95l.328-2.872 8.743-.289c4.81-.159 9.554.145 10.544.675.99.53 2.6 3.5 3.577 6.599.98 3.11 2.277 5.468 2.894 5.262.614-.205 1.97-2.932 3.014-6.062 2.205-6.616 2.844-6.92 13.635-6.484 8.912.36 10.688 1.922 7.843 6.9-2.364 4.135-2.487 19.402-.182 22.692.862 1.23 1.424 3.243 1.25 4.472-.3 2.113-.782 2.235-8.818 2.235s-8.517-.122-8.817-2.235c-.175-1.229.387-3.241 1.25-4.472 1.677-2.395 2.105-10.396.677-12.65-1.094-1.726-1.28-1.368-4.61 8.857-3.216 9.88-3.935 11-7.063 11-2.852 0-3.133-.445-6.923-11-1.68-4.675-3.494-8.5-4.034-8.5-1.718 0-1.704 9.165.019 12.498.882 1.706 1.326 3.98.985 5.052-.535 1.686-1.556 1.95-7.551 1.95h-6.933zm54.706 2.814c-1.176-1.177-.793-5.307.711-7.658.78-1.218 2.873-7.615 4.652-14.215 1.778-6.6 3.67-12.563 4.205-13.25 1.382-1.779 14.162-1.671 15.967.134.761.761 2.852 6.902 4.645 13.647 1.793 6.744 3.937 13.295 4.764 14.558.828 1.262 1.357 3.334 1.177 4.603-.312 2.204-.71 2.308-8.827 2.308-8.21 0-8.511-.082-8.839-2.4-.186-1.319.243-3.486.954-4.814 1.083-2.024 1.056-2.566-.161-3.336-2.164-1.369-4.55-1.142-5.97.569-1.03 1.24-.945 1.866.458 3.417.946 1.044 1.57 2.949 1.388 4.231-.305 2.159-.856 2.355-7.374 2.623-3.874.159-7.361-.029-7.75-.417zm17.794-19.373c0-1.833-.521-3.507-1.159-3.72-1.326-.442-2.829 5.121-1.823 6.748 1.262 2.043 2.982.297 2.982-3.028zm21.25 19.425c-1.23-1.244-.853-4.906.718-6.984 2.107-2.785 2.132-19.699.032-21.441-1.994-1.655-1.94-6.618.082-7.393 2.491-.956 15.608-.709 21.48.405 8.908 1.689 12.956 7.238 12.916 17.706-.028 7.515-2.747 13.574-7.15 15.932-2.512 1.346-6.27 1.875-15.328 2.158-6.6.207-12.337.034-12.75-.383zm19.316-7.46c1.69-.905 1.934-2.16 1.934-9.929 0-6.751-.378-9.272-1.571-10.465-1.886-1.886-2.647-1.953-4.229-.371-1.628 1.628-1.628 18.972 0 20.6 1.455 1.455 1.455 1.455 3.866.165z"
       transform="matrix(.6487 0 0 .6487 -186.396 -265.554)"
       fill="#fff"
       filter="url(#e)"
       id="path36"
       style="fill:#0a1212;fill-opacity:1" />
  </g>
  <path
     inkscape:connector-curvature="0"
     d="m 616.172,473.664 c -0.997,-2.597 0.366,-9.629 2.404,-12.395 1.047,-1.422 4.23,-4.337 7.073,-6.477 6.237,-4.695 6.894,-7.61 1.715,-7.61 -1.899,0 -4.6,0.524 -6.004,1.163 -3.138,1.43 -3.574,1.027 -4.237,-3.917 l -0.526,-3.92 5.926,-1.663 c 7.373,-2.068 9.226,-2.073 14.312,-0.038 6.107,2.443 8.645,8.756 5.672,14.105 -0.68,1.227 -3.894,4.377 -7.14,7 -3.245,2.624 -6.084,5.333 -6.309,6.02 -0.7,2.147 2.724,2.585 6.078,0.778 1.765,-0.95 4.328,-1.57 5.695,-1.378 2.228,0.314 2.486,0.818 2.486,4.85 v 4.5 l -13.27,0.28 c -11.33,0.238 -13.359,0.049 -13.875,-1.298 z m 37.944,-0.44 c -4.973,-3.033 -6.71,-7.286 -6.752,-16.541 -0.029,-6.242 0.402,-8.745 1.958,-11.387 5.629,-9.556 22.362,-9.556 27.99,0 1.556,2.642 1.987,5.145 1.958,11.387 -0.061,13.281 -4.556,18.492 -15.953,18.492 -4.19,0 -6.965,-0.588 -9.201,-1.952 z m 11.501,-6.241 c 0.76,-0.76 1.2,-4.573 1.2,-10.378 0,-10.185 -1.098,-12.51 -4.936,-10.456 -1.857,0.994 -2.064,2.032 -2.064,10.369 0,8.995 0.801,11.665 3.5,11.665 0.605,0 1.64,-0.54 2.3,-1.2 z m 18.902,7.568 c -0.386,-0.386 -0.702,-1.924 -0.702,-3.418 0,-1.891 0.618,-2.879 2.035,-3.249 1.91,-0.5 2.017,-1.19 1.75,-11.323 -0.277,-10.497 -0.351,-10.807 -2.71,-11.362 -1.335,-0.314 -2.587,-1.054 -2.784,-1.644 -0.728,-2.184 2.986,-3.69 10.245,-4.156 l 7.464,-0.48 v 14.097 c 0,13.21 0.13,14.166 2.06,15.199 1.451,0.777 1.968,1.895 1.75,3.785 -0.308,2.666 -0.368,2.685 -9.358,2.968 -4.977,0.156 -9.365,-0.031 -9.75,-0.417 z m 28.651,-0.89 c -0.91,-2.375 1.268,-8.953 5.731,-17.305 2.154,-4.03 3.916,-7.742 3.916,-8.25 0,-0.508 -1.392,-0.923 -3.093,-0.923 -2.279,0 -3.235,0.54 -3.63,2.051 -0.45,1.718 -1.207,2.002 -4.657,1.75 l -4.12,-0.301 -0.3,-5.75 -0.3,-5.75 h 29.1 v 2.713 c 0,1.492 -1.78,6.329 -3.956,10.75 -2.177,4.42 -4.808,11.187 -5.848,15.037 l -1.892,7 -5.163,0.303 c -4.035,0.236 -5.3,-0.053 -5.788,-1.326 z"
     transform="matrix(0.70389,0,0,0.70389,-378.385,-275.0907)"
     id="path28-3"
     style="fill:#0f0f0f;fill-opacity:1;filter:url(#b-7)" />
</svg>
